<?xml version="1.0" encoding="utf-8" standalone="no"?>
<!DOCTYPE svg PUBLIC "-//W3C//DTD SVG 1.1//EN"
  "http://www.w3.org/Graphics/SVG/1.1/DTD/svg11.dtd">
<svg xmlns:xlink="http://www.w3.org/1999/xlink" width="648pt" height="324pt" viewBox="0 0 648 324" xmlns="http://www.w3.org/2000/svg" version="1.1">
 <metadata>
  <rdf:RDF xmlns:dc="http://purl.org/dc/elements/1.1/" xmlns:cc="http://creativecommons.org/ns#" xmlns:rdf="http://www.w3.org/1999/02/22-rdf-syntax-ns#">
   <cc:Work>
    <dc:type rdf:resource="http://purl.org/dc/dcmitype/StillImage"/>
    <dc:date>2026-05-03T22:02:46.031807</dc:date>
    <dc:format>image/svg+xml</dc:format>
    <dc:creator>
     <cc:Agent>
      <dc:title>Matplotlib v3.9.4, https://matplotlib.org/</dc:title>
     </cc:Agent>
    </dc:creator>
   </cc:Work>
  </rdf:RDF>
 </metadata>
 <defs>
  <style type="text/css">*{stroke-linejoin: round; stroke-linecap: butt}</style>
 </defs>
 <g id="figure_1">
  <g id="patch_1">
   <path d="M 0 324 
L 648 324 
L 648 0 
L 0 0 
z
" style="fill: #0d1117"/>
  </g>
  <g id="axes_1">
   <g id="patch_2">
    <path d="M 50.87 296.12 
L 637.2 296.12 
L 637.2 10.8 
L 50.87 10.8 
z
" style="fill: #0d1117"/>
   </g>
   <g id="PathCollection_1">
    <path d="M 610.548636 28.099218 
C 611.696999 28.099218 612.798483 27.642968 613.610499 26.830953 
C 614.422514 26.018938 614.878763 24.917454 614.878763 23.769091 
C 614.878763 22.620728 614.422514 21.519244 613.610499 20.707229 
C 612.798483 19.895213 611.696999 19.438964 610.548636 19.438964 
C 609.400273 19.438964 608.29879 19.895213 607.486774 20.707229 
C 606.674759 21.519244 606.218509 22.620728 606.218509 23.769091 
C 606.218509 24.917454 606.674759 26.018938 607.486774 26.830953 
C 608.29879 27.642968 609.400273 28.099218 610.548636 28.099218 
z
" clip-path="url(#p362db717b7)" style="fill: #f78166; fill-opacity: 0.85"/>
   </g>
   <g id="PathCollection_2">
    <path d="M 610.548636 143.380026 
C 611.696999 143.380026 612.798483 142.923777 613.610499 142.111761 
C 614.422514 141.299746 614.878763 140.198262 614.878763 139.049899 
C 614.878763 137.901536 614.422514 136.800052 613.610499 135.988037 
C 612.798483 135.176021 611.696999 134.719772 610.548636 134.719772 
C 609.400273 134.719772 608.29879 135.176021 607.486774 135.988037 
C 606.674759 136.800052 606.218509 137.901536 606.218509 139.049899 
C 606.218509 140.198262 606.674759 141.299746 607.486774 142.111761 
C 608.29879 142.923777 609.400273 143.380026 610.548636 143.380026 
z
" clip-path="url(#p362db717b7)" style="fill: #d29922; fill-opacity: 0.85"/>
    <path d="M 610.548636 114.559824 
C 611.696999 114.559824 612.798483 114.103574 613.610499 113.291559 
C 614.422514 112.479544 614.878763 111.37806 614.878763 110.229697 
C 614.878763 109.081334 614.422514 107.97985 613.610499 107.167835 
C 612.798483 106.355819 611.696999 105.89957 610.548636 105.89957 
C 609.400273 105.89957 608.29879 106.355819 607.486774 107.167835 
C 606.674759 107.97985 606.218509 109.081334 606.218509 110.229697 
C 606.218509 111.37806 606.674759 112.479544 607.486774 113.291559 
C 608.29879 114.103574 609.400273 114.559824 610.548636 114.559824 
z
" clip-path="url(#p362db717b7)" style="fill: #d29922; fill-opacity: 0.85"/>
    <path d="M 610.548636 85.739622 
C 611.696999 85.739622 612.798483 85.283372 613.610499 84.471357 
C 614.422514 83.659342 614.878763 82.557858 614.878763 81.409495 
C 614.878763 80.261132 614.422514 79.159648 613.610499 78.347633 
C 612.798483 77.535617 611.696999 77.079368 610.548636 77.079368 
C 609.400273 77.079368 608.29879 77.535617 607.486774 78.347633 
C 606.674759 79.159648 606.218509 80.261132 606.218509 81.409495 
C 606.218509 82.557858 606.674759 83.659342 607.486774 84.471357 
C 608.29879 85.283372 609.400273 85.739622 610.548636 85.739622 
z
" clip-path="url(#p362db717b7)" style="fill: #d29922; fill-opacity: 0.85"/>
    <path d="M 610.548636 56.91942 
C 611.696999 56.91942 612.798483 56.46317 613.610499 55.651155 
C 614.422514 54.83914 614.878763 53.737656 614.878763 52.589293 
C 614.878763 51.44093 614.422514 50.339446 613.610499 49.527431 
C 612.798483 48.715415 611.696999 48.259166 610.548636 48.259166 
C 609.400273 48.259166 608.29879 48.715415 607.486774 49.527431 
C 606.674759 50.339446 606.218509 51.44093 606.218509 52.589293 
C 606.218509 53.737656 606.674759 54.83914 607.486774 55.651155 
C 608.29879 56.46317 609.400273 56.91942 610.548636 56.91942 
z
" clip-path="url(#p362db717b7)" style="fill: #d29922; fill-opacity: 0.85"/>
   </g>
   <g id="PathCollection_3">
    <path d="M 77.521364 290.482348 
C 79.465684 290.482348 81.330632 289.709862 82.705474 288.335019 
C 84.080316 286.960177 84.852803 285.095229 84.852803 283.150909 
C 84.852803 281.206589 84.080316 279.341641 82.705474 277.966799 
C 81.330632 276.591957 79.465684 275.81947 77.521364 275.81947 
C 75.577043 275.81947 73.712095 276.591957 72.337253 277.966799 
C 70.962411 279.341641 70.189924 281.206589 70.189924 283.150909 
C 70.189924 285.095229 70.962411 286.960177 72.337253 288.335019 
C 73.712095 289.709862 75.577043 290.482348 77.521364 290.482348 
z
" clip-path="url(#p362db717b7)" style="fill: #3fb950; fill-opacity: 0.85"/>
    <path d="M 166.359242 232.841944 
C 168.303563 232.841944 170.168511 232.069458 171.543353 230.694615 
C 172.918195 229.319773 173.690682 227.454825 173.690682 225.510505 
C 173.690682 223.566185 172.918195 221.701237 171.543353 220.326395 
C 170.168511 218.951553 168.303563 218.179066 166.359242 218.179066 
C 164.414922 218.179066 162.549974 218.951553 161.175132 220.326395 
C 159.80029 221.701237 159.027803 223.566185 159.027803 225.510505 
C 159.027803 227.454825 159.80029 229.319773 161.175132 230.694615 
C 162.549974 232.069458 164.414922 232.841944 166.359242 232.841944 
z
" clip-path="url(#p362db717b7)" style="fill: #3fb950; fill-opacity: 0.85"/>
    <path d="M 314.422374 175.20154 
C 316.366694 175.20154 318.231642 174.429053 319.606484 173.054211 
C 320.981326 171.679369 321.753813 169.814421 321.753813 167.870101 
C 321.753813 165.925781 320.981326 164.060833 319.606484 162.685991 
C 318.231642 161.311149 316.366694 160.538662 314.422374 160.538662 
C 312.478053 160.538662 310.613106 161.311149 309.238263 162.685991 
C 307.863421 164.060833 307.090935 165.925781 307.090935 167.870101 
C 307.090935 169.814421 307.863421 171.679369 309.238263 173.054211 
C 310.613106 174.429053 312.478053 175.20154 314.422374 175.20154 
z
" clip-path="url(#p362db717b7)" style="fill: #3fb950; fill-opacity: 0.85"/>
    <path d="M 492.098131 146.381338 
C 494.042452 146.381338 495.9074 145.608851 497.282242 144.234009 
C 498.657084 142.859167 499.42957 140.994219 499.42957 139.049899 
C 499.42957 137.105579 498.657084 135.240631 497.282242 133.865789 
C 495.9074 132.490947 494.042452 131.71846 492.098131 131.71846 
C 490.153811 131.71846 488.288863 132.490947 486.914021 133.865789 
C 485.539179 135.240631 484.766692 137.105579 484.766692 139.049899 
C 484.766692 140.994219 485.539179 142.859167 486.914021 144.234009 
C 488.288863 145.608851 490.153811 146.381338 492.098131 146.381338 
z
" clip-path="url(#p362db717b7)" style="fill: #3fb950; fill-opacity: 0.85"/>
   </g>
   <g id="matplotlib.axis_1">
    <g id="xtick_1">
     <g id="line2d_1">
      <path d="M 77.521364 296.12 
L 77.521364 10.8 
" clip-path="url(#p362db717b7)" style="fill: none; stroke: #23282f; stroke-width: 0.6; stroke-linecap: square"/>
     </g>
     <g id="line2d_2">
      <defs>
       <path id="mfca9817103" d="M 0 0 
L 0 3.5 
" style="stroke: #8b949e; stroke-width: 0.8"/>
      </defs>
      <g>
       <use xlink:href="#mfca9817103" x="77.521364" y="296.12" style="fill: #8b949e; stroke: #8b949e; stroke-width: 0.8"/>
      </g>
     </g>
     <g id="text_1">
      <!-- Apr 13 -->
      <g style="fill: #8b949e" transform="translate(60.919801 310.718437) scale(0.1 -0.1)">
       <defs>
        <path id="DejaVuSans-41" d="M 2188 4044 
L 1331 1722 
L 3047 1722 
L 2188 4044 
z
M 1831 4666 
L 2547 4666 
L 4325 0 
L 3669 0 
L 3244 1197 
L 1141 1197 
L 716 0 
L 50 0 
L 1831 4666 
z
" transform="scale(0.015625)"/>
        <path id="DejaVuSans-70" d="M 1159 525 
L 1159 -1331 
L 581 -1331 
L 581 3500 
L 1159 3500 
L 1159 2969 
Q 1341 3281 1617 3432 
Q 1894 3584 2278 3584 
Q 2916 3584 3314 3078 
Q 3713 2572 3713 1747 
Q 3713 922 3314 415 
Q 2916 -91 2278 -91 
Q 1894 -91 1617 61 
Q 1341 213 1159 525 
z
M 3116 1747 
Q 3116 2381 2855 2742 
Q 2594 3103 2138 3103 
Q 1681 3103 1420 2742 
Q 1159 2381 1159 1747 
Q 1159 1113 1420 752 
Q 1681 391 2138 391 
Q 2594 391 2855 752 
Q 3116 1113 3116 1747 
z
" transform="scale(0.015625)"/>
        <path id="DejaVuSans-72" d="M 2631 2963 
Q 2534 3019 2420 3045 
Q 2306 3072 2169 3072 
Q 1681 3072 1420 2755 
Q 1159 2438 1159 1844 
L 1159 0 
L 581 0 
L 581 3500 
L 1159 3500 
L 1159 2956 
Q 1341 3275 1631 3429 
Q 1922 3584 2338 3584 
Q 2397 3584 2469 3576 
Q 2541 3569 2628 3553 
L 2631 2963 
z
" transform="scale(0.015625)"/>
        <path id="DejaVuSans-20" transform="scale(0.015625)"/>
        <path id="DejaVuSans-31" d="M 794 531 
L 1825 531 
L 1825 4091 
L 703 3866 
L 703 4441 
L 1819 4666 
L 2450 4666 
L 2450 531 
L 3481 531 
L 3481 0 
L 794 0 
L 794 531 
z
" transform="scale(0.015625)"/>
        <path id="DejaVuSans-33" d="M 2597 2516 
Q 3050 2419 3304 2112 
Q 3559 1806 3559 1356 
Q 3559 666 3084 287 
Q 2609 -91 1734 -91 
Q 1441 -91 1130 -33 
Q 819 25 488 141 
L 488 750 
Q 750 597 1062 519 
Q 1375 441 1716 441 
Q 2309 441 2620 675 
Q 2931 909 2931 1356 
Q 2931 1769 2642 2001 
Q 2353 2234 1838 2234 
L 1294 2234 
L 1294 2753 
L 1863 2753 
Q 2328 2753 2575 2939 
Q 2822 3125 2822 3475 
Q 2822 3834 2567 4026 
Q 2313 4219 1838 4219 
Q 1578 4219 1281 4162 
Q 984 4106 628 3988 
L 628 4550 
Q 988 4650 1302 4700 
Q 1616 4750 1894 4750 
Q 2613 4750 3031 4423 
Q 3450 4097 3450 3541 
Q 3450 3153 3228 2886 
Q 3006 2619 2597 2516 
z
" transform="scale(0.015625)"/>
       </defs>
       <use xlink:href="#DejaVuSans-41"/>
       <use xlink:href="#DejaVuSans-70" x="68.408203"/>
       <use xlink:href="#DejaVuSans-72" x="131.884766"/>
       <use xlink:href="#DejaVuSans-20" x="172.998047"/>
       <use xlink:href="#DejaVuSans-31" x="204.785156"/>
       <use xlink:href="#DejaVuSans-33" x="268.408203"/>
      </g>
     </g>
    </g>
    <g id="xtick_2">
     <g id="line2d_3">
      <path d="M 136.746616 296.12 
L 136.746616 10.8 
" clip-path="url(#p362db717b7)" style="fill: none; stroke: #23282f; stroke-width: 0.6; stroke-linecap: square"/>
     </g>
     <g id="line2d_4">
      <g>
       <use xlink:href="#mfca9817103" x="136.746616" y="296.12" style="fill: #8b949e; stroke: #8b949e; stroke-width: 0.8"/>
      </g>
     </g>
     <g id="text_2">
      <!-- Apr 15 -->
      <g style="fill: #8b949e" transform="translate(120.145054 310.718437) scale(0.1 -0.1)">
       <defs>
        <path id="DejaVuSans-35" d="M 691 4666 
L 3169 4666 
L 3169 4134 
L 1269 4134 
L 1269 2991 
Q 1406 3038 1543 3061 
Q 1681 3084 1819 3084 
Q 2600 3084 3056 2656 
Q 3513 2228 3513 1497 
Q 3513 744 3044 326 
Q 2575 -91 1722 -91 
Q 1428 -91 1123 -41 
Q 819 9 494 109 
L 494 744 
Q 775 591 1075 516 
Q 1375 441 1709 441 
Q 2250 441 2565 725 
Q 2881 1009 2881 1497 
Q 2881 1984 2565 2268 
Q 2250 2553 1709 2553 
Q 1456 2553 1204 2497 
Q 953 2441 691 2322 
L 691 4666 
z
" transform="scale(0.015625)"/>
       </defs>
       <use xlink:href="#DejaVuSans-41"/>
       <use xlink:href="#DejaVuSans-70" x="68.408203"/>
       <use xlink:href="#DejaVuSans-72" x="131.884766"/>
       <use xlink:href="#DejaVuSans-20" x="172.998047"/>
       <use xlink:href="#DejaVuSans-31" x="204.785156"/>
       <use xlink:href="#DejaVuSans-35" x="268.408203"/>
      </g>
     </g>
    </g>
    <g id="xtick_3">
     <g id="line2d_5">
      <path d="M 195.971869 296.12 
L 195.971869 10.8 
" clip-path="url(#p362db717b7)" style="fill: none; stroke: #23282f; stroke-width: 0.6; stroke-linecap: square"/>
     </g>
     <g id="line2d_6">
      <g>
       <use xlink:href="#mfca9817103" x="195.971869" y="296.12" style="fill: #8b949e; stroke: #8b949e; stroke-width: 0.8"/>
      </g>
     </g>
     <g id="text_3">
      <!-- Apr 17 -->
      <g style="fill: #8b949e" transform="translate(179.370306 310.718437) scale(0.1 -0.1)">
       <defs>
        <path id="DejaVuSans-37" d="M 525 4666 
L 3525 4666 
L 3525 4397 
L 1831 0 
L 1172 0 
L 2766 4134 
L 525 4134 
L 525 4666 
z
" transform="scale(0.015625)"/>
       </defs>
       <use xlink:href="#DejaVuSans-41"/>
       <use xlink:href="#DejaVuSans-70" x="68.408203"/>
       <use xlink:href="#DejaVuSans-72" x="131.884766"/>
       <use xlink:href="#DejaVuSans-20" x="172.998047"/>
       <use xlink:href="#DejaVuSans-31" x="204.785156"/>
       <use xlink:href="#DejaVuSans-37" x="268.408203"/>
      </g>
     </g>
    </g>
    <g id="xtick_4">
     <g id="line2d_7">
      <path d="M 255.197121 296.12 
L 255.197121 10.8 
" clip-path="url(#p362db717b7)" style="fill: none; stroke: #23282f; stroke-width: 0.6; stroke-linecap: square"/>
     </g>
     <g id="line2d_8">
      <g>
       <use xlink:href="#mfca9817103" x="255.197121" y="296.12" style="fill: #8b949e; stroke: #8b949e; stroke-width: 0.8"/>
      </g>
     </g>
     <g id="text_4">
      <!-- Apr 19 -->
      <g style="fill: #8b949e" transform="translate(238.595559 310.718437) scale(0.1 -0.1)">
       <defs>
        <path id="DejaVuSans-39" d="M 703 97 
L 703 672 
Q 941 559 1184 500 
Q 1428 441 1663 441 
Q 2288 441 2617 861 
Q 2947 1281 2994 2138 
Q 2813 1869 2534 1725 
Q 2256 1581 1919 1581 
Q 1219 1581 811 2004 
Q 403 2428 403 3163 
Q 403 3881 828 4315 
Q 1253 4750 1959 4750 
Q 2769 4750 3195 4129 
Q 3622 3509 3622 2328 
Q 3622 1225 3098 567 
Q 2575 -91 1691 -91 
Q 1453 -91 1209 -44 
Q 966 3 703 97 
z
M 1959 2075 
Q 2384 2075 2632 2365 
Q 2881 2656 2881 3163 
Q 2881 3666 2632 3958 
Q 2384 4250 1959 4250 
Q 1534 4250 1286 3958 
Q 1038 3666 1038 3163 
Q 1038 2656 1286 2365 
Q 1534 2075 1959 2075 
z
" transform="scale(0.015625)"/>
       </defs>
       <use xlink:href="#DejaVuSans-41"/>
       <use xlink:href="#DejaVuSans-70" x="68.408203"/>
       <use xlink:href="#DejaVuSans-72" x="131.884766"/>
       <use xlink:href="#DejaVuSans-20" x="172.998047"/>
       <use xlink:href="#DejaVuSans-31" x="204.785156"/>
       <use xlink:href="#DejaVuSans-39" x="268.408203"/>
      </g>
     </g>
    </g>
    <g id="xtick_5">
     <g id="line2d_9">
      <path d="M 314.422374 296.12 
L 314.422374 10.8 
" clip-path="url(#p362db717b7)" style="fill: none; stroke: #23282f; stroke-width: 0.6; stroke-linecap: square"/>
     </g>
     <g id="line2d_10">
      <g>
       <use xlink:href="#mfca9817103" x="314.422374" y="296.12" style="fill: #8b949e; stroke: #8b949e; stroke-width: 0.8"/>
      </g>
     </g>
     <g id="text_5">
      <!-- Apr 21 -->
      <g style="fill: #8b949e" transform="translate(297.820811 310.718437) scale(0.1 -0.1)">
       <defs>
        <path id="DejaVuSans-32" d="M 1228 531 
L 3431 531 
L 3431 0 
L 469 0 
L 469 531 
Q 828 903 1448 1529 
Q 2069 2156 2228 2338 
Q 2531 2678 2651 2914 
Q 2772 3150 2772 3378 
Q 2772 3750 2511 3984 
Q 2250 4219 1831 4219 
Q 1534 4219 1204 4116 
Q 875 4013 500 3803 
L 500 4441 
Q 881 4594 1212 4672 
Q 1544 4750 1819 4750 
Q 2544 4750 2975 4387 
Q 3406 4025 3406 3419 
Q 3406 3131 3298 2873 
Q 3191 2616 2906 2266 
Q 2828 2175 2409 1742 
Q 1991 1309 1228 531 
z
" transform="scale(0.015625)"/>
       </defs>
       <use xlink:href="#DejaVuSans-41"/>
       <use xlink:href="#DejaVuSans-70" x="68.408203"/>
       <use xlink:href="#DejaVuSans-72" x="131.884766"/>
       <use xlink:href="#DejaVuSans-20" x="172.998047"/>
       <use xlink:href="#DejaVuSans-32" x="204.785156"/>
       <use xlink:href="#DejaVuSans-31" x="268.408203"/>
      </g>
     </g>
    </g>
    <g id="xtick_6">
     <g id="line2d_11">
      <path d="M 373.647626 296.12 
L 373.647626 10.8 
" clip-path="url(#p362db717b7)" style="fill: none; stroke: #23282f; stroke-width: 0.6; stroke-linecap: square"/>
     </g>
     <g id="line2d_12">
      <g>
       <use xlink:href="#mfca9817103" x="373.647626" y="296.12" style="fill: #8b949e; stroke: #8b949e; stroke-width: 0.8"/>
      </g>
     </g>
     <g id="text_6">
      <!-- Apr 23 -->
      <g style="fill: #8b949e" transform="translate(357.046064 310.718437) scale(0.1 -0.1)">
       <use xlink:href="#DejaVuSans-41"/>
       <use xlink:href="#DejaVuSans-70" x="68.408203"/>
       <use xlink:href="#DejaVuSans-72" x="131.884766"/>
       <use xlink:href="#DejaVuSans-20" x="172.998047"/>
       <use xlink:href="#DejaVuSans-32" x="204.785156"/>
       <use xlink:href="#DejaVuSans-33" x="268.408203"/>
      </g>
     </g>
    </g>
    <g id="xtick_7">
     <g id="line2d_13">
      <path d="M 432.872879 296.12 
L 432.872879 10.8 
" clip-path="url(#p362db717b7)" style="fill: none; stroke: #23282f; stroke-width: 0.6; stroke-linecap: square"/>
     </g>
     <g id="line2d_14">
      <g>
       <use xlink:href="#mfca9817103" x="432.872879" y="296.12" style="fill: #8b949e; stroke: #8b949e; stroke-width: 0.8"/>
      </g>
     </g>
     <g id="text_7">
      <!-- Apr 25 -->
      <g style="fill: #8b949e" transform="translate(416.271316 310.718437) scale(0.1 -0.1)">
       <use xlink:href="#DejaVuSans-41"/>
       <use xlink:href="#DejaVuSans-70" x="68.408203"/>
       <use xlink:href="#DejaVuSans-72" x="131.884766"/>
       <use xlink:href="#DejaVuSans-20" x="172.998047"/>
       <use xlink:href="#DejaVuSans-32" x="204.785156"/>
       <use xlink:href="#DejaVuSans-35" x="268.408203"/>
      </g>
     </g>
    </g>
    <g id="xtick_8">
     <g id="line2d_15">
      <path d="M 492.098131 296.12 
L 492.098131 10.8 
" clip-path="url(#p362db717b7)" style="fill: none; stroke: #23282f; stroke-width: 0.6; stroke-linecap: square"/>
     </g>
     <g id="line2d_16">
      <g>
       <use xlink:href="#mfca9817103" x="492.098131" y="296.12" style="fill: #8b949e; stroke: #8b949e; stroke-width: 0.8"/>
      </g>
     </g>
     <g id="text_8">
      <!-- Apr 27 -->
      <g style="fill: #8b949e" transform="translate(475.496569 310.718437) scale(0.1 -0.1)">
       <use xlink:href="#DejaVuSans-41"/>
       <use xlink:href="#DejaVuSans-70" x="68.408203"/>
       <use xlink:href="#DejaVuSans-72" x="131.884766"/>
       <use xlink:href="#DejaVuSans-20" x="172.998047"/>
       <use xlink:href="#DejaVuSans-32" x="204.785156"/>
       <use xlink:href="#DejaVuSans-37" x="268.408203"/>
      </g>
     </g>
    </g>
    <g id="xtick_9">
     <g id="line2d_17">
      <path d="M 551.323384 296.12 
L 551.323384 10.8 
" clip-path="url(#p362db717b7)" style="fill: none; stroke: #23282f; stroke-width: 0.6; stroke-linecap: square"/>
     </g>
     <g id="line2d_18">
      <g>
       <use xlink:href="#mfca9817103" x="551.323384" y="296.12" style="fill: #8b949e; stroke: #8b949e; stroke-width: 0.8"/>
      </g>
     </g>
     <g id="text_9">
      <!-- Apr 29 -->
      <g style="fill: #8b949e" transform="translate(534.721821 310.718437) scale(0.1 -0.1)">
       <use xlink:href="#DejaVuSans-41"/>
       <use xlink:href="#DejaVuSans-70" x="68.408203"/>
       <use xlink:href="#DejaVuSans-72" x="131.884766"/>
       <use xlink:href="#DejaVuSans-20" x="172.998047"/>
       <use xlink:href="#DejaVuSans-32" x="204.785156"/>
       <use xlink:href="#DejaVuSans-39" x="268.408203"/>
      </g>
     </g>
    </g>
    <g id="xtick_10">
     <g id="line2d_19">
      <path d="M 610.548636 296.12 
L 610.548636 10.8 
" clip-path="url(#p362db717b7)" style="fill: none; stroke: #23282f; stroke-width: 0.6; stroke-linecap: square"/>
     </g>
     <g id="line2d_20">
      <g>
       <use xlink:href="#mfca9817103" x="610.548636" y="296.12" style="fill: #8b949e; stroke: #8b949e; stroke-width: 0.8"/>
      </g>
     </g>
     <g id="text_10">
      <!-- May 01 -->
      <g style="fill: #8b949e" transform="translate(592.259574 310.718437) scale(0.1 -0.1)">
       <defs>
        <path id="DejaVuSans-4d" d="M 628 4666 
L 1569 4666 
L 2759 1491 
L 3956 4666 
L 4897 4666 
L 4897 0 
L 4281 0 
L 4281 4097 
L 3078 897 
L 2444 897 
L 1241 4097 
L 1241 0 
L 628 0 
L 628 4666 
z
" transform="scale(0.015625)"/>
        <path id="DejaVuSans-61" d="M 2194 1759 
Q 1497 1759 1228 1600 
Q 959 1441 959 1056 
Q 959 750 1161 570 
Q 1363 391 1709 391 
Q 2188 391 2477 730 
Q 2766 1069 2766 1631 
L 2766 1759 
L 2194 1759 
z
M 3341 1997 
L 3341 0 
L 2766 0 
L 2766 531 
Q 2569 213 2275 61 
Q 1981 -91 1556 -91 
Q 1019 -91 701 211 
Q 384 513 384 1019 
Q 384 1609 779 1909 
Q 1175 2209 1959 2209 
L 2766 2209 
L 2766 2266 
Q 2766 2663 2505 2880 
Q 2244 3097 1772 3097 
Q 1472 3097 1187 3025 
Q 903 2953 641 2809 
L 641 3341 
Q 956 3463 1253 3523 
Q 1550 3584 1831 3584 
Q 2591 3584 2966 3190 
Q 3341 2797 3341 1997 
z
" transform="scale(0.015625)"/>
        <path id="DejaVuSans-79" d="M 2059 -325 
Q 1816 -950 1584 -1140 
Q 1353 -1331 966 -1331 
L 506 -1331 
L 506 -850 
L 844 -850 
Q 1081 -850 1212 -737 
Q 1344 -625 1503 -206 
L 1606 56 
L 191 3500 
L 800 3500 
L 1894 763 
L 2988 3500 
L 3597 3500 
L 2059 -325 
z
" transform="scale(0.015625)"/>
        <path id="DejaVuSans-30" d="M 2034 4250 
Q 1547 4250 1301 3770 
Q 1056 3291 1056 2328 
Q 1056 1369 1301 889 
Q 1547 409 2034 409 
Q 2525 409 2770 889 
Q 3016 1369 3016 2328 
Q 3016 3291 2770 3770 
Q 2525 4250 2034 4250 
z
M 2034 4750 
Q 2819 4750 3233 4129 
Q 3647 3509 3647 2328 
Q 3647 1150 3233 529 
Q 2819 -91 2034 -91 
Q 1250 -91 836 529 
Q 422 1150 422 2328 
Q 422 3509 836 4129 
Q 1250 4750 2034 4750 
z
" transform="scale(0.015625)"/>
       </defs>
       <use xlink:href="#DejaVuSans-4d"/>
       <use xlink:href="#DejaVuSans-61" x="86.279297"/>
       <use xlink:href="#DejaVuSans-79" x="147.558594"/>
       <use xlink:href="#DejaVuSans-20" x="206.738281"/>
       <use xlink:href="#DejaVuSans-30" x="238.525391"/>
       <use xlink:href="#DejaVuSans-31" x="302.148438"/>
      </g>
     </g>
    </g>
   </g>
   <g id="matplotlib.axis_2">
    <g id="ytick_1">
     <g id="line2d_21">
      <path d="M 50.87 268.740808 
L 637.2 268.740808 
" clip-path="url(#p362db717b7)" style="fill: none; stroke: #23282f; stroke-width: 0.6; stroke-linecap: square"/>
     </g>
     <g id="line2d_22">
      <defs>
       <path id="m09a1e2f13f" d="M 0 0 
L -3.5 0 
" style="stroke: #8b949e; stroke-width: 0.8"/>
      </defs>
      <g>
       <use xlink:href="#m09a1e2f13f" x="50.87" y="268.740808" style="fill: #8b949e; stroke: #8b949e; stroke-width: 0.8"/>
      </g>
     </g>
     <g id="text_11">
      <!-- 260 -->
      <g style="fill: #8b949e" transform="translate(24.7825 272.540027) scale(0.1 -0.1)">
       <defs>
        <path id="DejaVuSans-36" d="M 2113 2584 
Q 1688 2584 1439 2293 
Q 1191 2003 1191 1497 
Q 1191 994 1439 701 
Q 1688 409 2113 409 
Q 2538 409 2786 701 
Q 3034 994 3034 1497 
Q 3034 2003 2786 2293 
Q 2538 2584 2113 2584 
z
M 3366 4563 
L 3366 3988 
Q 3128 4100 2886 4159 
Q 2644 4219 2406 4219 
Q 1781 4219 1451 3797 
Q 1122 3375 1075 2522 
Q 1259 2794 1537 2939 
Q 1816 3084 2150 3084 
Q 2853 3084 3261 2657 
Q 3669 2231 3669 1497 
Q 3669 778 3244 343 
Q 2819 -91 2113 -91 
Q 1303 -91 875 529 
Q 447 1150 447 2328 
Q 447 3434 972 4092 
Q 1497 4750 2381 4750 
Q 2619 4750 2861 4703 
Q 3103 4656 3366 4563 
z
" transform="scale(0.015625)"/>
       </defs>
       <use xlink:href="#DejaVuSans-32"/>
       <use xlink:href="#DejaVuSans-36" x="63.623047"/>
       <use xlink:href="#DejaVuSans-30" x="127.246094"/>
      </g>
     </g>
    </g>
    <g id="ytick_2">
     <g id="line2d_23">
      <path d="M 50.87 211.100404 
L 637.2 211.100404 
" clip-path="url(#p362db717b7)" style="fill: none; stroke: #23282f; stroke-width: 0.6; stroke-linecap: square"/>
     </g>
     <g id="line2d_24">
      <g>
       <use xlink:href="#m09a1e2f13f" x="50.87" y="211.100404" style="fill: #8b949e; stroke: #8b949e; stroke-width: 0.8"/>
      </g>
     </g>
     <g id="text_12">
      <!-- 280 -->
      <g style="fill: #8b949e" transform="translate(24.7825 214.899623) scale(0.1 -0.1)">
       <defs>
        <path id="DejaVuSans-38" d="M 2034 2216 
Q 1584 2216 1326 1975 
Q 1069 1734 1069 1313 
Q 1069 891 1326 650 
Q 1584 409 2034 409 
Q 2484 409 2743 651 
Q 3003 894 3003 1313 
Q 3003 1734 2745 1975 
Q 2488 2216 2034 2216 
z
M 1403 2484 
Q 997 2584 770 2862 
Q 544 3141 544 3541 
Q 544 4100 942 4425 
Q 1341 4750 2034 4750 
Q 2731 4750 3128 4425 
Q 3525 4100 3525 3541 
Q 3525 3141 3298 2862 
Q 3072 2584 2669 2484 
Q 3125 2378 3379 2068 
Q 3634 1759 3634 1313 
Q 3634 634 3220 271 
Q 2806 -91 2034 -91 
Q 1263 -91 848 271 
Q 434 634 434 1313 
Q 434 1759 690 2068 
Q 947 2378 1403 2484 
z
M 1172 3481 
Q 1172 3119 1398 2916 
Q 1625 2713 2034 2713 
Q 2441 2713 2670 2916 
Q 2900 3119 2900 3481 
Q 2900 3844 2670 4047 
Q 2441 4250 2034 4250 
Q 1625 4250 1398 4047 
Q 1172 3844 1172 3481 
z
" transform="scale(0.015625)"/>
       </defs>
       <use xlink:href="#DejaVuSans-32"/>
       <use xlink:href="#DejaVuSans-38" x="63.623047"/>
       <use xlink:href="#DejaVuSans-30" x="127.246094"/>
      </g>
     </g>
    </g>
    <g id="ytick_3">
     <g id="line2d_25">
      <path d="M 50.87 153.46 
L 637.2 153.46 
" clip-path="url(#p362db717b7)" style="fill: none; stroke: #23282f; stroke-width: 0.6; stroke-linecap: square"/>
     </g>
     <g id="line2d_26">
      <g>
       <use xlink:href="#m09a1e2f13f" x="50.87" y="153.46" style="fill: #8b949e; stroke: #8b949e; stroke-width: 0.8"/>
      </g>
     </g>
     <g id="text_13">
      <!-- 300 -->
      <g style="fill: #8b949e" transform="translate(24.7825 157.259219) scale(0.1 -0.1)">
       <use xlink:href="#DejaVuSans-33"/>
       <use xlink:href="#DejaVuSans-30" x="63.623047"/>
       <use xlink:href="#DejaVuSans-30" x="127.246094"/>
      </g>
     </g>
    </g>
    <g id="ytick_4">
     <g id="line2d_27">
      <path d="M 50.87 95.819596 
L 637.2 95.819596 
" clip-path="url(#p362db717b7)" style="fill: none; stroke: #23282f; stroke-width: 0.6; stroke-linecap: square"/>
     </g>
     <g id="line2d_28">
      <g>
       <use xlink:href="#m09a1e2f13f" x="50.87" y="95.819596" style="fill: #8b949e; stroke: #8b949e; stroke-width: 0.8"/>
      </g>
     </g>
     <g id="text_14">
      <!-- 320 -->
      <g style="fill: #8b949e" transform="translate(24.7825 99.618815) scale(0.1 -0.1)">
       <use xlink:href="#DejaVuSans-33"/>
       <use xlink:href="#DejaVuSans-32" x="63.623047"/>
       <use xlink:href="#DejaVuSans-30" x="127.246094"/>
      </g>
     </g>
    </g>
    <g id="ytick_5">
     <g id="line2d_29">
      <path d="M 50.87 38.179192 
L 637.2 38.179192 
" clip-path="url(#p362db717b7)" style="fill: none; stroke: #23282f; stroke-width: 0.6; stroke-linecap: square"/>
     </g>
     <g id="line2d_30">
      <g>
       <use xlink:href="#m09a1e2f13f" x="50.87" y="38.179192" style="fill: #8b949e; stroke: #8b949e; stroke-width: 0.8"/>
      </g>
     </g>
     <g id="text_15">
      <!-- 340 -->
      <g style="fill: #8b949e" transform="translate(24.7825 41.978411) scale(0.1 -0.1)">
       <defs>
        <path id="DejaVuSans-34" d="M 2419 4116 
L 825 1625 
L 2419 1625 
L 2419 4116 
z
M 2253 4666 
L 3047 4666 
L 3047 1625 
L 3713 1625 
L 3713 1100 
L 3047 1100 
L 3047 0 
L 2419 0 
L 2419 1100 
L 313 1100 
L 313 1709 
L 2253 4666 
z
" transform="scale(0.015625)"/>
       </defs>
       <use xlink:href="#DejaVuSans-33"/>
       <use xlink:href="#DejaVuSans-34" x="63.623047"/>
       <use xlink:href="#DejaVuSans-30" x="127.246094"/>
      </g>
     </g>
    </g>
    <g id="text_16">
     <!-- Working set load (lb) -->
     <g style="fill: #8b949e" transform="translate(18.702813 205.412344) rotate(-90) scale(0.1 -0.1)">
      <defs>
       <path id="DejaVuSans-57" d="M 213 4666 
L 850 4666 
L 1831 722 
L 2809 4666 
L 3519 4666 
L 4500 722 
L 5478 4666 
L 6119 4666 
L 4947 0 
L 4153 0 
L 3169 4050 
L 2175 0 
L 1381 0 
L 213 4666 
z
" transform="scale(0.015625)"/>
       <path id="DejaVuSans-6f" d="M 1959 3097 
Q 1497 3097 1228 2736 
Q 959 2375 959 1747 
Q 959 1119 1226 758 
Q 1494 397 1959 397 
Q 2419 397 2687 759 
Q 2956 1122 2956 1747 
Q 2956 2369 2687 2733 
Q 2419 3097 1959 3097 
z
M 1959 3584 
Q 2709 3584 3137 3096 
Q 3566 2609 3566 1747 
Q 3566 888 3137 398 
Q 2709 -91 1959 -91 
Q 1206 -91 779 398 
Q 353 888 353 1747 
Q 353 2609 779 3096 
Q 1206 3584 1959 3584 
z
" transform="scale(0.015625)"/>
       <path id="DejaVuSans-6b" d="M 581 4863 
L 1159 4863 
L 1159 1991 
L 2875 3500 
L 3609 3500 
L 1753 1863 
L 3688 0 
L 2938 0 
L 1159 1709 
L 1159 0 
L 581 0 
L 581 4863 
z
" transform="scale(0.015625)"/>
       <path id="DejaVuSans-69" d="M 603 3500 
L 1178 3500 
L 1178 0 
L 603 0 
L 603 3500 
z
M 603 4863 
L 1178 4863 
L 1178 4134 
L 603 4134 
L 603 4863 
z
" transform="scale(0.015625)"/>
       <path id="DejaVuSans-6e" d="M 3513 2113 
L 3513 0 
L 2938 0 
L 2938 2094 
Q 2938 2591 2744 2837 
Q 2550 3084 2163 3084 
Q 1697 3084 1428 2787 
Q 1159 2491 1159 1978 
L 1159 0 
L 581 0 
L 581 3500 
L 1159 3500 
L 1159 2956 
Q 1366 3272 1645 3428 
Q 1925 3584 2291 3584 
Q 2894 3584 3203 3211 
Q 3513 2838 3513 2113 
z
" transform="scale(0.015625)"/>
       <path id="DejaVuSans-67" d="M 2906 1791 
Q 2906 2416 2648 2759 
Q 2391 3103 1925 3103 
Q 1463 3103 1205 2759 
Q 947 2416 947 1791 
Q 947 1169 1205 825 
Q 1463 481 1925 481 
Q 2391 481 2648 825 
Q 2906 1169 2906 1791 
z
M 3481 434 
Q 3481 -459 3084 -895 
Q 2688 -1331 1869 -1331 
Q 1566 -1331 1297 -1286 
Q 1028 -1241 775 -1147 
L 775 -588 
Q 1028 -725 1275 -790 
Q 1522 -856 1778 -856 
Q 2344 -856 2625 -561 
Q 2906 -266 2906 331 
L 2906 616 
Q 2728 306 2450 153 
Q 2172 0 1784 0 
Q 1141 0 747 490 
Q 353 981 353 1791 
Q 353 2603 747 3093 
Q 1141 3584 1784 3584 
Q 2172 3584 2450 3431 
Q 2728 3278 2906 2969 
L 2906 3500 
L 3481 3500 
L 3481 434 
z
" transform="scale(0.015625)"/>
       <path id="DejaVuSans-73" d="M 2834 3397 
L 2834 2853 
Q 2591 2978 2328 3040 
Q 2066 3103 1784 3103 
Q 1356 3103 1142 2972 
Q 928 2841 928 2578 
Q 928 2378 1081 2264 
Q 1234 2150 1697 2047 
L 1894 2003 
Q 2506 1872 2764 1633 
Q 3022 1394 3022 966 
Q 3022 478 2636 193 
Q 2250 -91 1575 -91 
Q 1294 -91 989 -36 
Q 684 19 347 128 
L 347 722 
Q 666 556 975 473 
Q 1284 391 1588 391 
Q 1994 391 2212 530 
Q 2431 669 2431 922 
Q 2431 1156 2273 1281 
Q 2116 1406 1581 1522 
L 1381 1569 
Q 847 1681 609 1914 
Q 372 2147 372 2553 
Q 372 3047 722 3315 
Q 1072 3584 1716 3584 
Q 2034 3584 2315 3537 
Q 2597 3491 2834 3397 
z
" transform="scale(0.015625)"/>
       <path id="DejaVuSans-65" d="M 3597 1894 
L 3597 1613 
L 953 1613 
Q 991 1019 1311 708 
Q 1631 397 2203 397 
Q 2534 397 2845 478 
Q 3156 559 3463 722 
L 3463 178 
Q 3153 47 2828 -22 
Q 2503 -91 2169 -91 
Q 1331 -91 842 396 
Q 353 884 353 1716 
Q 353 2575 817 3079 
Q 1281 3584 2069 3584 
Q 2775 3584 3186 3129 
Q 3597 2675 3597 1894 
z
M 3022 2063 
Q 3016 2534 2758 2815 
Q 2500 3097 2075 3097 
Q 1594 3097 1305 2825 
Q 1016 2553 972 2059 
L 3022 2063 
z
" transform="scale(0.015625)"/>
       <path id="DejaVuSans-74" d="M 1172 4494 
L 1172 3500 
L 2356 3500 
L 2356 3053 
L 1172 3053 
L 1172 1153 
Q 1172 725 1289 603 
Q 1406 481 1766 481 
L 2356 481 
L 2356 0 
L 1766 0 
Q 1100 0 847 248 
Q 594 497 594 1153 
L 594 3053 
L 172 3053 
L 172 3500 
L 594 3500 
L 594 4494 
L 1172 4494 
z
" transform="scale(0.015625)"/>
       <path id="DejaVuSans-6c" d="M 603 4863 
L 1178 4863 
L 1178 0 
L 603 0 
L 603 4863 
z
" transform="scale(0.015625)"/>
       <path id="DejaVuSans-64" d="M 2906 2969 
L 2906 4863 
L 3481 4863 
L 3481 0 
L 2906 0 
L 2906 525 
Q 2725 213 2448 61 
Q 2172 -91 1784 -91 
Q 1150 -91 751 415 
Q 353 922 353 1747 
Q 353 2572 751 3078 
Q 1150 3584 1784 3584 
Q 2172 3584 2448 3432 
Q 2725 3281 2906 2969 
z
M 947 1747 
Q 947 1113 1208 752 
Q 1469 391 1925 391 
Q 2381 391 2643 752 
Q 2906 1113 2906 1747 
Q 2906 2381 2643 2742 
Q 2381 3103 1925 3103 
Q 1469 3103 1208 2742 
Q 947 2381 947 1747 
z
" transform="scale(0.015625)"/>
       <path id="DejaVuSans-28" d="M 1984 4856 
Q 1566 4138 1362 3434 
Q 1159 2731 1159 2009 
Q 1159 1288 1364 580 
Q 1569 -128 1984 -844 
L 1484 -844 
Q 1016 -109 783 600 
Q 550 1309 550 2009 
Q 550 2706 781 3412 
Q 1013 4119 1484 4856 
L 1984 4856 
z
" transform="scale(0.015625)"/>
       <path id="DejaVuSans-62" d="M 3116 1747 
Q 3116 2381 2855 2742 
Q 2594 3103 2138 3103 
Q 1681 3103 1420 2742 
Q 1159 2381 1159 1747 
Q 1159 1113 1420 752 
Q 1681 391 2138 391 
Q 2594 391 2855 752 
Q 3116 1113 3116 1747 
z
M 1159 2969 
Q 1341 3281 1617 3432 
Q 1894 3584 2278 3584 
Q 2916 3584 3314 3078 
Q 3713 2572 3713 1747 
Q 3713 922 3314 415 
Q 2916 -91 2278 -91 
Q 1894 -91 1617 61 
Q 1341 213 1159 525 
L 1159 0 
L 581 0 
L 581 4863 
L 1159 4863 
L 1159 2969 
z
" transform="scale(0.015625)"/>
       <path id="DejaVuSans-29" d="M 513 4856 
L 1013 4856 
Q 1481 4119 1714 3412 
Q 1947 2706 1947 2009 
Q 1947 1309 1714 600 
Q 1481 -109 1013 -844 
L 513 -844 
Q 928 -128 1133 580 
Q 1338 1288 1338 2009 
Q 1338 2731 1133 3434 
Q 928 4138 513 4856 
z
" transform="scale(0.015625)"/>
      </defs>
      <use xlink:href="#DejaVuSans-57"/>
      <use xlink:href="#DejaVuSans-6f" x="93.001953"/>
      <use xlink:href="#DejaVuSans-72" x="154.183594"/>
      <use xlink:href="#DejaVuSans-6b" x="195.296875"/>
      <use xlink:href="#DejaVuSans-69" x="253.207031"/>
      <use xlink:href="#DejaVuSans-6e" x="280.990234"/>
      <use xlink:href="#DejaVuSans-67" x="344.369141"/>
      <use xlink:href="#DejaVuSans-20" x="407.845703"/>
      <use xlink:href="#DejaVuSans-73" x="439.632812"/>
      <use xlink:href="#DejaVuSans-65" x="491.732422"/>
      <use xlink:href="#DejaVuSans-74" x="553.255859"/>
      <use xlink:href="#DejaVuSans-20" x="592.464844"/>
      <use xlink:href="#DejaVuSans-6c" x="624.251953"/>
      <use xlink:href="#DejaVuSans-6f" x="652.035156"/>
      <use xlink:href="#DejaVuSans-61" x="713.216797"/>
      <use xlink:href="#DejaVuSans-64" x="774.496094"/>
      <use xlink:href="#DejaVuSans-20" x="837.972656"/>
      <use xlink:href="#DejaVuSans-28" x="869.759766"/>
      <use xlink:href="#DejaVuSans-6c" x="908.773438"/>
      <use xlink:href="#DejaVuSans-62" x="936.556641"/>
      <use xlink:href="#DejaVuSans-29" x="1000.033203"/>
     </g>
    </g>
   </g>
   <g id="patch_3">
    <path d="M 50.87 296.12 
L 50.87 10.8 
" style="fill: none; stroke: #23282f; stroke-width: 0.8; stroke-linejoin: miter; stroke-linecap: square"/>
   </g>
   <g id="patch_4">
    <path d="M 637.2 296.12 
L 637.2 10.8 
" style="fill: none; stroke: #23282f; stroke-width: 0.8; stroke-linejoin: miter; stroke-linecap: square"/>
   </g>
   <g id="patch_5">
    <path d="M 50.87 296.12 
L 637.2 296.12 
" style="fill: none; stroke: #23282f; stroke-width: 0.8; stroke-linejoin: miter; stroke-linecap: square"/>
   </g>
   <g id="patch_6">
    <path d="M 50.87 10.8 
L 637.2 10.8 
" style="fill: none; stroke: #23282f; stroke-width: 0.8; stroke-linejoin: miter; stroke-linecap: square"/>
   </g>
   <g id="legend_1">
    <g id="patch_7">
     <path d="M 57.87 62.834375 
L 121.0075 62.834375 
Q 123.0075 62.834375 123.0075 60.834375 
L 123.0075 17.8 
Q 123.0075 15.8 121.0075 15.8 
L 57.87 15.8 
Q 55.87 15.8 55.87 17.8 
L 55.87 60.834375 
Q 55.87 62.834375 57.87 62.834375 
z
" style="fill: #0d1117; opacity: 0.8; stroke: #23282f; stroke-linejoin: miter"/>
    </g>
    <g id="PathCollection_4">
     <path d="M 69.87 29.103565 
C 71.018363 29.103565 72.119847 28.647315 72.931862 27.8353 
C 73.743878 27.023284 74.200127 25.921801 74.200127 24.773438 
C 74.200127 23.625074 73.743878 22.523591 72.931862 21.711575 
C 72.119847 20.89956 71.018363 20.44331 69.87 20.44331 
C 68.721637 20.44331 67.620153 20.89956 66.808138 21.711575 
C 65.996122 22.523591 65.539873 23.625074 65.539873 24.773438 
C 65.539873 25.921801 65.996122 27.023284 66.808138 27.8353 
C 67.620153 28.647315 68.721637 29.103565 69.87 29.103565 
z
" style="fill: #f78166; fill-opacity: 0.85"/>
    </g>
    <g id="text_17">
     <!-- 2 reps -->
     <g style="fill: #e6edf3" transform="translate(87.87 27.398438) scale(0.1 -0.1)">
      <use xlink:href="#DejaVuSans-32"/>
      <use xlink:href="#DejaVuSans-20" x="63.623047"/>
      <use xlink:href="#DejaVuSans-72" x="95.410156"/>
      <use xlink:href="#DejaVuSans-65" x="134.273438"/>
      <use xlink:href="#DejaVuSans-70" x="195.796875"/>
      <use xlink:href="#DejaVuSans-73" x="259.273438"/>
     </g>
    </g>
    <g id="PathCollection_5">
     <path d="M 69.87 43.78169 
C 71.018363 43.78169 72.119847 43.32544 72.931862 42.513425 
C 73.743878 41.701409 74.200127 40.599926 74.200127 39.451563 
C 74.200127 38.303199 73.743878 37.201716 72.931862 36.3897 
C 72.119847 35.577685 71.018363 35.121435 69.87 35.121435 
C 68.721637 35.121435 67.620153 35.577685 66.808138 36.3897 
C 65.996122 37.201716 65.539873 38.303199 65.539873 39.451563 
C 65.539873 40.599926 65.996122 41.701409 66.808138 42.513425 
C 67.620153 43.32544 68.721637 43.78169 69.87 43.78169 
z
" style="fill: #d29922; fill-opacity: 0.85"/>
    </g>
    <g id="text_18">
     <!-- 3 reps -->
     <g style="fill: #e6edf3" transform="translate(87.87 42.076563) scale(0.1 -0.1)">
      <use xlink:href="#DejaVuSans-33"/>
      <use xlink:href="#DejaVuSans-20" x="63.623047"/>
      <use xlink:href="#DejaVuSans-72" x="95.410156"/>
      <use xlink:href="#DejaVuSans-65" x="134.273438"/>
      <use xlink:href="#DejaVuSans-70" x="195.796875"/>
      <use xlink:href="#DejaVuSans-73" x="259.273438"/>
     </g>
    </g>
    <g id="PathCollection_6">
     <path d="M 69.87 61.461127 
C 71.81432 61.461127 73.679268 60.68864 75.05411 59.313798 
C 76.428952 57.938956 77.201439 56.074008 77.201439 54.129687 
C 77.201439 52.185367 76.428952 50.320419 75.05411 48.945577 
C 73.679268 47.570735 71.81432 46.798248 69.87 46.798248 
C 67.92568 46.798248 66.060732 47.570735 64.68589 48.945577 
C 63.311048 50.320419 62.538561 52.185367 62.538561 54.129687 
C 62.538561 56.074008 63.311048 57.938956 64.68589 59.313798 
C 66.060732 60.68864 67.92568 61.461127 69.87 61.461127 
z
" style="fill: #3fb950; fill-opacity: 0.85"/>
    </g>
    <g id="text_19">
     <!-- 5 reps -->
     <g style="fill: #e6edf3" transform="translate(87.87 56.754687) scale(0.1 -0.1)">
      <use xlink:href="#DejaVuSans-35"/>
      <use xlink:href="#DejaVuSans-20" x="63.623047"/>
      <use xlink:href="#DejaVuSans-72" x="95.410156"/>
      <use xlink:href="#DejaVuSans-65" x="134.273438"/>
      <use xlink:href="#DejaVuSans-70" x="195.796875"/>
      <use xlink:href="#DejaVuSans-73" x="259.273438"/>
     </g>
    </g>
   </g>
  </g>
 </g>
 <defs>
  <clipPath id="p362db717b7">
   <rect x="50.87" y="10.8" width="586.33" height="285.32"/>
  </clipPath>
 </defs>
</svg>
