<?xml version="1.0" encoding="utf-8" standalone="no"?>
<!DOCTYPE svg PUBLIC "-//W3C//DTD SVG 1.1//EN"
  "http://www.w3.org/Graphics/SVG/1.1/DTD/svg11.dtd">
<svg xmlns:xlink="http://www.w3.org/1999/xlink" width="648pt" height="324pt" viewBox="0 0 648 324" xmlns="http://www.w3.org/2000/svg" version="1.1">
 <metadata>
  <rdf:RDF xmlns:dc="http://purl.org/dc/elements/1.1/" xmlns:cc="http://creativecommons.org/ns#" xmlns:rdf="http://www.w3.org/1999/02/22-rdf-syntax-ns#">
   <cc:Work>
    <dc:type rdf:resource="http://purl.org/dc/dcmitype/StillImage"/>
    <dc:date>2026-05-03T22:02:46.071584</dc:date>
    <dc:format>image/svg+xml</dc:format>
    <dc:creator>
     <cc:Agent>
      <dc:title>Matplotlib v3.9.4, https://matplotlib.org/</dc:title>
     </cc:Agent>
    </dc:creator>
   </cc:Work>
  </rdf:RDF>
 </metadata>
 <defs>
  <style type="text/css">*{stroke-linejoin: round; stroke-linecap: butt}</style>
 </defs>
 <g id="figure_1">
  <g id="patch_1">
   <path d="M 0 324 
L 648 324 
L 648 0 
L 0 0 
z
" style="fill: #0d1117"/>
  </g>
  <g id="axes_1">
   <g id="patch_2">
    <path d="M 50.87 296.12 
L 637.2 296.12 
L 637.2 10.8 
L 50.87 10.8 
z
" style="fill: #0d1117"/>
   </g>
   <g id="PathCollection_1">
    <path d="M 361.802576 71.329521 
C 362.950939 71.329521 364.052423 70.873271 364.864438 70.061256 
C 365.676453 69.249241 366.132703 68.147757 366.132703 66.999394 
C 366.132703 65.851031 365.676453 64.749547 364.864438 63.937532 
C 364.052423 63.125516 362.950939 62.669267 361.802576 62.669267 
C 360.654213 62.669267 359.552729 63.125516 358.740714 63.937532 
C 357.928698 64.749547 357.472449 65.851031 357.472449 66.999394 
C 357.472449 68.147757 357.928698 69.249241 358.740714 70.061256 
C 359.552729 70.873271 360.654213 71.329521 361.802576 71.329521 
z
" clip-path="url(#p6fd872d9b6)" style="fill: #f78166; fill-opacity: 0.85"/>
    <path d="M 361.802576 28.099218 
C 362.950939 28.099218 364.052423 27.642968 364.864438 26.830953 
C 365.676453 26.018938 366.132703 24.917454 366.132703 23.769091 
C 366.132703 22.620728 365.676453 21.519244 364.864438 20.707229 
C 364.052423 19.895213 362.950939 19.438964 361.802576 19.438964 
C 360.654213 19.438964 359.552729 19.895213 358.740714 20.707229 
C 357.928698 21.519244 357.472449 22.620728 357.472449 23.769091 
C 357.472449 24.917454 357.928698 26.018938 358.740714 26.830953 
C 359.552729 27.642968 360.654213 28.099218 361.802576 28.099218 
z
" clip-path="url(#p6fd872d9b6)" style="fill: #f78166; fill-opacity: 0.85"/>
   </g>
   <g id="PathCollection_2">
    <path d="M 361.802576 157.790127 
C 362.950939 157.790127 364.052423 157.333878 364.864438 156.521862 
C 365.676453 155.709847 366.132703 154.608363 366.132703 153.46 
C 366.132703 152.311637 365.676453 151.210153 364.864438 150.398138 
C 364.052423 149.586122 362.950939 149.129873 361.802576 149.129873 
C 360.654213 149.129873 359.552729 149.586122 358.740714 150.398138 
C 357.928698 151.210153 357.472449 152.311637 357.472449 153.46 
C 357.472449 154.608363 357.928698 155.709847 358.740714 156.521862 
C 359.552729 157.333878 360.654213 157.790127 361.802576 157.790127 
z
" clip-path="url(#p6fd872d9b6)" style="fill: #d29922; fill-opacity: 0.85"/>
   </g>
   <g id="PathCollection_3">
    <path d="M 255.197121 244.250733 
C 256.345484 244.250733 257.446968 243.794484 258.258983 242.982468 
C 259.070999 242.170453 259.527248 241.068969 259.527248 239.920606 
C 259.527248 238.772243 259.070999 237.670759 258.258983 236.858744 
C 257.446968 236.046729 256.345484 235.590479 255.197121 235.590479 
C 254.048758 235.590479 252.947274 236.046729 252.135259 236.858744 
C 251.323244 237.670759 250.866994 238.772243 250.866994 239.920606 
C 250.866994 241.068969 251.323244 242.170453 252.135259 242.982468 
C 252.947274 243.794484 254.048758 244.250733 255.197121 244.250733 
z
" clip-path="url(#p6fd872d9b6)" style="fill: #3fb950; fill-opacity: 0.85"/>
   </g>
   <g id="PathCollection_4">
    <path d="M 77.521364 246.62881 
C 79.3004 246.62881 81.006811 245.921991 82.26478 244.664023 
C 83.522749 243.406054 84.229568 241.699643 84.229568 239.920606 
C 84.229568 238.14157 83.522749 236.435158 82.26478 235.17719 
C 81.006811 233.919221 79.3004 233.212402 77.521364 233.212402 
C 75.742327 233.212402 74.035916 233.919221 72.777947 235.17719 
C 71.519978 236.435158 70.81316 238.14157 70.81316 239.920606 
C 70.81316 241.699643 71.519978 243.406054 72.777947 244.664023 
C 74.035916 245.921991 75.742327 246.62881 77.521364 246.62881 
z
" clip-path="url(#p6fd872d9b6)" style="fill: #58a6ff; fill-opacity: 0.85"/>
    <path d="M 255.197121 245.941403 
C 256.793855 245.941403 258.325406 245.307014 259.454468 244.177953 
C 260.583529 243.048891 261.217919 241.51734 261.217919 239.920606 
C 261.217919 238.323872 260.583529 236.792321 259.454468 235.663259 
C 258.325406 234.534198 256.793855 233.899809 255.197121 233.899809 
C 253.600387 233.899809 252.068836 234.534198 250.939775 235.663259 
C 249.810713 236.792321 249.176324 238.323872 249.176324 239.920606 
C 249.176324 241.51734 249.810713 243.048891 250.939775 244.177953 
C 252.068836 245.307014 253.600387 245.941403 255.197121 245.941403 
z
" clip-path="url(#p6fd872d9b6)" style="fill: #58a6ff; fill-opacity: 0.85"/>
    <path d="M 610.548636 290.482348 
C 612.492957 290.482348 614.357905 289.709862 615.732747 288.335019 
C 617.107589 286.960177 617.880076 285.095229 617.880076 283.150909 
C 617.880076 281.206589 617.107589 279.341641 615.732747 277.966799 
C 614.357905 276.591957 612.492957 275.81947 610.548636 275.81947 
C 608.604316 275.81947 606.739368 276.591957 605.364526 277.966799 
C 603.989684 279.341641 603.217197 281.206589 603.217197 283.150909 
C 603.217197 285.095229 603.989684 286.960177 605.364526 288.335019 
C 606.739368 289.709862 608.604316 290.482348 610.548636 290.482348 
z
" clip-path="url(#p6fd872d9b6)" style="fill: #58a6ff; fill-opacity: 0.85"/>
   </g>
   <g id="matplotlib.axis_1">
    <g id="xtick_1">
     <g id="line2d_1">
      <path d="M 113.056515 296.12 
L 113.056515 10.8 
" clip-path="url(#p6fd872d9b6)" style="fill: none; stroke: #23282f; stroke-width: 0.6; stroke-linecap: square"/>
     </g>
     <g id="line2d_2">
      <defs>
       <path id="md161ee14af" d="M 0 0 
L 0 3.5 
" style="stroke: #8b949e; stroke-width: 0.8"/>
      </defs>
      <g>
       <use xlink:href="#md161ee14af" x="113.056515" y="296.12" style="fill: #8b949e; stroke: #8b949e; stroke-width: 0.8"/>
      </g>
     </g>
     <g id="text_1">
      <!-- Apr 15 -->
      <g style="fill: #8b949e" transform="translate(96.454953 310.718437) scale(0.1 -0.1)">
       <defs>
        <path id="DejaVuSans-41" d="M 2188 4044 
L 1331 1722 
L 3047 1722 
L 2188 4044 
z
M 1831 4666 
L 2547 4666 
L 4325 0 
L 3669 0 
L 3244 1197 
L 1141 1197 
L 716 0 
L 50 0 
L 1831 4666 
z
" transform="scale(0.015625)"/>
        <path id="DejaVuSans-70" d="M 1159 525 
L 1159 -1331 
L 581 -1331 
L 581 3500 
L 1159 3500 
L 1159 2969 
Q 1341 3281 1617 3432 
Q 1894 3584 2278 3584 
Q 2916 3584 3314 3078 
Q 3713 2572 3713 1747 
Q 3713 922 3314 415 
Q 2916 -91 2278 -91 
Q 1894 -91 1617 61 
Q 1341 213 1159 525 
z
M 3116 1747 
Q 3116 2381 2855 2742 
Q 2594 3103 2138 3103 
Q 1681 3103 1420 2742 
Q 1159 2381 1159 1747 
Q 1159 1113 1420 752 
Q 1681 391 2138 391 
Q 2594 391 2855 752 
Q 3116 1113 3116 1747 
z
" transform="scale(0.015625)"/>
        <path id="DejaVuSans-72" d="M 2631 2963 
Q 2534 3019 2420 3045 
Q 2306 3072 2169 3072 
Q 1681 3072 1420 2755 
Q 1159 2438 1159 1844 
L 1159 0 
L 581 0 
L 581 3500 
L 1159 3500 
L 1159 2956 
Q 1341 3275 1631 3429 
Q 1922 3584 2338 3584 
Q 2397 3584 2469 3576 
Q 2541 3569 2628 3553 
L 2631 2963 
z
" transform="scale(0.015625)"/>
        <path id="DejaVuSans-20" transform="scale(0.015625)"/>
        <path id="DejaVuSans-31" d="M 794 531 
L 1825 531 
L 1825 4091 
L 703 3866 
L 703 4441 
L 1819 4666 
L 2450 4666 
L 2450 531 
L 3481 531 
L 3481 0 
L 794 0 
L 794 531 
z
" transform="scale(0.015625)"/>
        <path id="DejaVuSans-35" d="M 691 4666 
L 3169 4666 
L 3169 4134 
L 1269 4134 
L 1269 2991 
Q 1406 3038 1543 3061 
Q 1681 3084 1819 3084 
Q 2600 3084 3056 2656 
Q 3513 2228 3513 1497 
Q 3513 744 3044 326 
Q 2575 -91 1722 -91 
Q 1428 -91 1123 -41 
Q 819 9 494 109 
L 494 744 
Q 775 591 1075 516 
Q 1375 441 1709 441 
Q 2250 441 2565 725 
Q 2881 1009 2881 1497 
Q 2881 1984 2565 2268 
Q 2250 2553 1709 2553 
Q 1456 2553 1204 2497 
Q 953 2441 691 2322 
L 691 4666 
z
" transform="scale(0.015625)"/>
       </defs>
       <use xlink:href="#DejaVuSans-41"/>
       <use xlink:href="#DejaVuSans-70" x="68.408203"/>
       <use xlink:href="#DejaVuSans-72" x="131.884766"/>
       <use xlink:href="#DejaVuSans-20" x="172.998047"/>
       <use xlink:href="#DejaVuSans-31" x="204.785156"/>
       <use xlink:href="#DejaVuSans-35" x="268.408203"/>
      </g>
     </g>
    </g>
    <g id="xtick_2">
     <g id="line2d_3">
      <path d="M 184.126818 296.12 
L 184.126818 10.8 
" clip-path="url(#p6fd872d9b6)" style="fill: none; stroke: #23282f; stroke-width: 0.6; stroke-linecap: square"/>
     </g>
     <g id="line2d_4">
      <g>
       <use xlink:href="#md161ee14af" x="184.126818" y="296.12" style="fill: #8b949e; stroke: #8b949e; stroke-width: 0.8"/>
      </g>
     </g>
     <g id="text_2">
      <!-- Apr 17 -->
      <g style="fill: #8b949e" transform="translate(167.525256 310.718437) scale(0.1 -0.1)">
       <defs>
        <path id="DejaVuSans-37" d="M 525 4666 
L 3525 4666 
L 3525 4397 
L 1831 0 
L 1172 0 
L 2766 4134 
L 525 4134 
L 525 4666 
z
" transform="scale(0.015625)"/>
       </defs>
       <use xlink:href="#DejaVuSans-41"/>
       <use xlink:href="#DejaVuSans-70" x="68.408203"/>
       <use xlink:href="#DejaVuSans-72" x="131.884766"/>
       <use xlink:href="#DejaVuSans-20" x="172.998047"/>
       <use xlink:href="#DejaVuSans-31" x="204.785156"/>
       <use xlink:href="#DejaVuSans-37" x="268.408203"/>
      </g>
     </g>
    </g>
    <g id="xtick_3">
     <g id="line2d_5">
      <path d="M 255.197121 296.12 
L 255.197121 10.8 
" clip-path="url(#p6fd872d9b6)" style="fill: none; stroke: #23282f; stroke-width: 0.6; stroke-linecap: square"/>
     </g>
     <g id="line2d_6">
      <g>
       <use xlink:href="#md161ee14af" x="255.197121" y="296.12" style="fill: #8b949e; stroke: #8b949e; stroke-width: 0.8"/>
      </g>
     </g>
     <g id="text_3">
      <!-- Apr 19 -->
      <g style="fill: #8b949e" transform="translate(238.595559 310.718437) scale(0.1 -0.1)">
       <defs>
        <path id="DejaVuSans-39" d="M 703 97 
L 703 672 
Q 941 559 1184 500 
Q 1428 441 1663 441 
Q 2288 441 2617 861 
Q 2947 1281 2994 2138 
Q 2813 1869 2534 1725 
Q 2256 1581 1919 1581 
Q 1219 1581 811 2004 
Q 403 2428 403 3163 
Q 403 3881 828 4315 
Q 1253 4750 1959 4750 
Q 2769 4750 3195 4129 
Q 3622 3509 3622 2328 
Q 3622 1225 3098 567 
Q 2575 -91 1691 -91 
Q 1453 -91 1209 -44 
Q 966 3 703 97 
z
M 1959 2075 
Q 2384 2075 2632 2365 
Q 2881 2656 2881 3163 
Q 2881 3666 2632 3958 
Q 2384 4250 1959 4250 
Q 1534 4250 1286 3958 
Q 1038 3666 1038 3163 
Q 1038 2656 1286 2365 
Q 1534 2075 1959 2075 
z
" transform="scale(0.015625)"/>
       </defs>
       <use xlink:href="#DejaVuSans-41"/>
       <use xlink:href="#DejaVuSans-70" x="68.408203"/>
       <use xlink:href="#DejaVuSans-72" x="131.884766"/>
       <use xlink:href="#DejaVuSans-20" x="172.998047"/>
       <use xlink:href="#DejaVuSans-31" x="204.785156"/>
       <use xlink:href="#DejaVuSans-39" x="268.408203"/>
      </g>
     </g>
    </g>
    <g id="xtick_4">
     <g id="line2d_7">
      <path d="M 326.267424 296.12 
L 326.267424 10.8 
" clip-path="url(#p6fd872d9b6)" style="fill: none; stroke: #23282f; stroke-width: 0.6; stroke-linecap: square"/>
     </g>
     <g id="line2d_8">
      <g>
       <use xlink:href="#md161ee14af" x="326.267424" y="296.12" style="fill: #8b949e; stroke: #8b949e; stroke-width: 0.8"/>
      </g>
     </g>
     <g id="text_4">
      <!-- Apr 21 -->
      <g style="fill: #8b949e" transform="translate(309.665862 310.718437) scale(0.1 -0.1)">
       <defs>
        <path id="DejaVuSans-32" d="M 1228 531 
L 3431 531 
L 3431 0 
L 469 0 
L 469 531 
Q 828 903 1448 1529 
Q 2069 2156 2228 2338 
Q 2531 2678 2651 2914 
Q 2772 3150 2772 3378 
Q 2772 3750 2511 3984 
Q 2250 4219 1831 4219 
Q 1534 4219 1204 4116 
Q 875 4013 500 3803 
L 500 4441 
Q 881 4594 1212 4672 
Q 1544 4750 1819 4750 
Q 2544 4750 2975 4387 
Q 3406 4025 3406 3419 
Q 3406 3131 3298 2873 
Q 3191 2616 2906 2266 
Q 2828 2175 2409 1742 
Q 1991 1309 1228 531 
z
" transform="scale(0.015625)"/>
       </defs>
       <use xlink:href="#DejaVuSans-41"/>
       <use xlink:href="#DejaVuSans-70" x="68.408203"/>
       <use xlink:href="#DejaVuSans-72" x="131.884766"/>
       <use xlink:href="#DejaVuSans-20" x="172.998047"/>
       <use xlink:href="#DejaVuSans-32" x="204.785156"/>
       <use xlink:href="#DejaVuSans-31" x="268.408203"/>
      </g>
     </g>
    </g>
    <g id="xtick_5">
     <g id="line2d_9">
      <path d="M 397.337727 296.12 
L 397.337727 10.8 
" clip-path="url(#p6fd872d9b6)" style="fill: none; stroke: #23282f; stroke-width: 0.6; stroke-linecap: square"/>
     </g>
     <g id="line2d_10">
      <g>
       <use xlink:href="#md161ee14af" x="397.337727" y="296.12" style="fill: #8b949e; stroke: #8b949e; stroke-width: 0.8"/>
      </g>
     </g>
     <g id="text_5">
      <!-- Apr 23 -->
      <g style="fill: #8b949e" transform="translate(380.736165 310.718437) scale(0.1 -0.1)">
       <defs>
        <path id="DejaVuSans-33" d="M 2597 2516 
Q 3050 2419 3304 2112 
Q 3559 1806 3559 1356 
Q 3559 666 3084 287 
Q 2609 -91 1734 -91 
Q 1441 -91 1130 -33 
Q 819 25 488 141 
L 488 750 
Q 750 597 1062 519 
Q 1375 441 1716 441 
Q 2309 441 2620 675 
Q 2931 909 2931 1356 
Q 2931 1769 2642 2001 
Q 2353 2234 1838 2234 
L 1294 2234 
L 1294 2753 
L 1863 2753 
Q 2328 2753 2575 2939 
Q 2822 3125 2822 3475 
Q 2822 3834 2567 4026 
Q 2313 4219 1838 4219 
Q 1578 4219 1281 4162 
Q 984 4106 628 3988 
L 628 4550 
Q 988 4650 1302 4700 
Q 1616 4750 1894 4750 
Q 2613 4750 3031 4423 
Q 3450 4097 3450 3541 
Q 3450 3153 3228 2886 
Q 3006 2619 2597 2516 
z
" transform="scale(0.015625)"/>
       </defs>
       <use xlink:href="#DejaVuSans-41"/>
       <use xlink:href="#DejaVuSans-70" x="68.408203"/>
       <use xlink:href="#DejaVuSans-72" x="131.884766"/>
       <use xlink:href="#DejaVuSans-20" x="172.998047"/>
       <use xlink:href="#DejaVuSans-32" x="204.785156"/>
       <use xlink:href="#DejaVuSans-33" x="268.408203"/>
      </g>
     </g>
    </g>
    <g id="xtick_6">
     <g id="line2d_11">
      <path d="M 468.40803 296.12 
L 468.40803 10.8 
" clip-path="url(#p6fd872d9b6)" style="fill: none; stroke: #23282f; stroke-width: 0.6; stroke-linecap: square"/>
     </g>
     <g id="line2d_12">
      <g>
       <use xlink:href="#md161ee14af" x="468.40803" y="296.12" style="fill: #8b949e; stroke: #8b949e; stroke-width: 0.8"/>
      </g>
     </g>
     <g id="text_6">
      <!-- Apr 25 -->
      <g style="fill: #8b949e" transform="translate(451.806468 310.718437) scale(0.1 -0.1)">
       <use xlink:href="#DejaVuSans-41"/>
       <use xlink:href="#DejaVuSans-70" x="68.408203"/>
       <use xlink:href="#DejaVuSans-72" x="131.884766"/>
       <use xlink:href="#DejaVuSans-20" x="172.998047"/>
       <use xlink:href="#DejaVuSans-32" x="204.785156"/>
       <use xlink:href="#DejaVuSans-35" x="268.408203"/>
      </g>
     </g>
    </g>
    <g id="xtick_7">
     <g id="line2d_13">
      <path d="M 539.478333 296.12 
L 539.478333 10.8 
" clip-path="url(#p6fd872d9b6)" style="fill: none; stroke: #23282f; stroke-width: 0.6; stroke-linecap: square"/>
     </g>
     <g id="line2d_14">
      <g>
       <use xlink:href="#md161ee14af" x="539.478333" y="296.12" style="fill: #8b949e; stroke: #8b949e; stroke-width: 0.8"/>
      </g>
     </g>
     <g id="text_7">
      <!-- Apr 27 -->
      <g style="fill: #8b949e" transform="translate(522.876771 310.718437) scale(0.1 -0.1)">
       <use xlink:href="#DejaVuSans-41"/>
       <use xlink:href="#DejaVuSans-70" x="68.408203"/>
       <use xlink:href="#DejaVuSans-72" x="131.884766"/>
       <use xlink:href="#DejaVuSans-20" x="172.998047"/>
       <use xlink:href="#DejaVuSans-32" x="204.785156"/>
       <use xlink:href="#DejaVuSans-37" x="268.408203"/>
      </g>
     </g>
    </g>
    <g id="xtick_8">
     <g id="line2d_15">
      <path d="M 610.548636 296.12 
L 610.548636 10.8 
" clip-path="url(#p6fd872d9b6)" style="fill: none; stroke: #23282f; stroke-width: 0.6; stroke-linecap: square"/>
     </g>
     <g id="line2d_16">
      <g>
       <use xlink:href="#md161ee14af" x="610.548636" y="296.12" style="fill: #8b949e; stroke: #8b949e; stroke-width: 0.8"/>
      </g>
     </g>
     <g id="text_8">
      <!-- Apr 29 -->
      <g style="fill: #8b949e" transform="translate(593.947074 310.718437) scale(0.1 -0.1)">
       <use xlink:href="#DejaVuSans-41"/>
       <use xlink:href="#DejaVuSans-70" x="68.408203"/>
       <use xlink:href="#DejaVuSans-72" x="131.884766"/>
       <use xlink:href="#DejaVuSans-20" x="172.998047"/>
       <use xlink:href="#DejaVuSans-32" x="204.785156"/>
       <use xlink:href="#DejaVuSans-39" x="268.408203"/>
      </g>
     </g>
    </g>
   </g>
   <g id="matplotlib.axis_2">
    <g id="ytick_1">
     <g id="line2d_17">
      <path d="M 50.87 283.150909 
L 637.2 283.150909 
" clip-path="url(#p6fd872d9b6)" style="fill: none; stroke: #23282f; stroke-width: 0.6; stroke-linecap: square"/>
     </g>
     <g id="line2d_18">
      <defs>
       <path id="m1bb41bab24" d="M 0 0 
L -3.5 0 
" style="stroke: #8b949e; stroke-width: 0.8"/>
      </defs>
      <g>
       <use xlink:href="#m1bb41bab24" x="50.87" y="283.150909" style="fill: #8b949e; stroke: #8b949e; stroke-width: 0.8"/>
      </g>
     </g>
     <g id="text_9">
      <!-- 120 -->
      <g style="fill: #8b949e" transform="translate(24.7825 286.950128) scale(0.1 -0.1)">
       <defs>
        <path id="DejaVuSans-30" d="M 2034 4250 
Q 1547 4250 1301 3770 
Q 1056 3291 1056 2328 
Q 1056 1369 1301 889 
Q 1547 409 2034 409 
Q 2525 409 2770 889 
Q 3016 1369 3016 2328 
Q 3016 3291 2770 3770 
Q 2525 4250 2034 4250 
z
M 2034 4750 
Q 2819 4750 3233 4129 
Q 3647 3509 3647 2328 
Q 3647 1150 3233 529 
Q 2819 -91 2034 -91 
Q 1250 -91 836 529 
Q 422 1150 422 2328 
Q 422 3509 836 4129 
Q 1250 4750 2034 4750 
z
" transform="scale(0.015625)"/>
       </defs>
       <use xlink:href="#DejaVuSans-31"/>
       <use xlink:href="#DejaVuSans-32" x="63.623047"/>
       <use xlink:href="#DejaVuSans-30" x="127.246094"/>
      </g>
     </g>
    </g>
    <g id="ytick_2">
     <g id="line2d_19">
      <path d="M 50.87 239.920606 
L 637.2 239.920606 
" clip-path="url(#p6fd872d9b6)" style="fill: none; stroke: #23282f; stroke-width: 0.6; stroke-linecap: square"/>
     </g>
     <g id="line2d_20">
      <g>
       <use xlink:href="#m1bb41bab24" x="50.87" y="239.920606" style="fill: #8b949e; stroke: #8b949e; stroke-width: 0.8"/>
      </g>
     </g>
     <g id="text_10">
      <!-- 125 -->
      <g style="fill: #8b949e" transform="translate(24.7825 243.719825) scale(0.1 -0.1)">
       <use xlink:href="#DejaVuSans-31"/>
       <use xlink:href="#DejaVuSans-32" x="63.623047"/>
       <use xlink:href="#DejaVuSans-35" x="127.246094"/>
      </g>
     </g>
    </g>
    <g id="ytick_3">
     <g id="line2d_21">
      <path d="M 50.87 196.690303 
L 637.2 196.690303 
" clip-path="url(#p6fd872d9b6)" style="fill: none; stroke: #23282f; stroke-width: 0.6; stroke-linecap: square"/>
     </g>
     <g id="line2d_22">
      <g>
       <use xlink:href="#m1bb41bab24" x="50.87" y="196.690303" style="fill: #8b949e; stroke: #8b949e; stroke-width: 0.8"/>
      </g>
     </g>
     <g id="text_11">
      <!-- 130 -->
      <g style="fill: #8b949e" transform="translate(24.7825 200.489522) scale(0.1 -0.1)">
       <use xlink:href="#DejaVuSans-31"/>
       <use xlink:href="#DejaVuSans-33" x="63.623047"/>
       <use xlink:href="#DejaVuSans-30" x="127.246094"/>
      </g>
     </g>
    </g>
    <g id="ytick_4">
     <g id="line2d_23">
      <path d="M 50.87 153.46 
L 637.2 153.46 
" clip-path="url(#p6fd872d9b6)" style="fill: none; stroke: #23282f; stroke-width: 0.6; stroke-linecap: square"/>
     </g>
     <g id="line2d_24">
      <g>
       <use xlink:href="#m1bb41bab24" x="50.87" y="153.46" style="fill: #8b949e; stroke: #8b949e; stroke-width: 0.8"/>
      </g>
     </g>
     <g id="text_12">
      <!-- 135 -->
      <g style="fill: #8b949e" transform="translate(24.7825 157.259219) scale(0.1 -0.1)">
       <use xlink:href="#DejaVuSans-31"/>
       <use xlink:href="#DejaVuSans-33" x="63.623047"/>
       <use xlink:href="#DejaVuSans-35" x="127.246094"/>
      </g>
     </g>
    </g>
    <g id="ytick_5">
     <g id="line2d_25">
      <path d="M 50.87 110.229697 
L 637.2 110.229697 
" clip-path="url(#p6fd872d9b6)" style="fill: none; stroke: #23282f; stroke-width: 0.6; stroke-linecap: square"/>
     </g>
     <g id="line2d_26">
      <g>
       <use xlink:href="#m1bb41bab24" x="50.87" y="110.229697" style="fill: #8b949e; stroke: #8b949e; stroke-width: 0.8"/>
      </g>
     </g>
     <g id="text_13">
      <!-- 140 -->
      <g style="fill: #8b949e" transform="translate(24.7825 114.028916) scale(0.1 -0.1)">
       <defs>
        <path id="DejaVuSans-34" d="M 2419 4116 
L 825 1625 
L 2419 1625 
L 2419 4116 
z
M 2253 4666 
L 3047 4666 
L 3047 1625 
L 3713 1625 
L 3713 1100 
L 3047 1100 
L 3047 0 
L 2419 0 
L 2419 1100 
L 313 1100 
L 313 1709 
L 2253 4666 
z
" transform="scale(0.015625)"/>
       </defs>
       <use xlink:href="#DejaVuSans-31"/>
       <use xlink:href="#DejaVuSans-34" x="63.623047"/>
       <use xlink:href="#DejaVuSans-30" x="127.246094"/>
      </g>
     </g>
    </g>
    <g id="ytick_6">
     <g id="line2d_27">
      <path d="M 50.87 66.999394 
L 637.2 66.999394 
" clip-path="url(#p6fd872d9b6)" style="fill: none; stroke: #23282f; stroke-width: 0.6; stroke-linecap: square"/>
     </g>
     <g id="line2d_28">
      <g>
       <use xlink:href="#m1bb41bab24" x="50.87" y="66.999394" style="fill: #8b949e; stroke: #8b949e; stroke-width: 0.8"/>
      </g>
     </g>
     <g id="text_14">
      <!-- 145 -->
      <g style="fill: #8b949e" transform="translate(24.7825 70.798613) scale(0.1 -0.1)">
       <use xlink:href="#DejaVuSans-31"/>
       <use xlink:href="#DejaVuSans-34" x="63.623047"/>
       <use xlink:href="#DejaVuSans-35" x="127.246094"/>
      </g>
     </g>
    </g>
    <g id="ytick_7">
     <g id="line2d_29">
      <path d="M 50.87 23.769091 
L 637.2 23.769091 
" clip-path="url(#p6fd872d9b6)" style="fill: none; stroke: #23282f; stroke-width: 0.6; stroke-linecap: square"/>
     </g>
     <g id="line2d_30">
      <g>
       <use xlink:href="#m1bb41bab24" x="50.87" y="23.769091" style="fill: #8b949e; stroke: #8b949e; stroke-width: 0.8"/>
      </g>
     </g>
     <g id="text_15">
      <!-- 150 -->
      <g style="fill: #8b949e" transform="translate(24.7825 27.56831) scale(0.1 -0.1)">
       <use xlink:href="#DejaVuSans-31"/>
       <use xlink:href="#DejaVuSans-35" x="63.623047"/>
       <use xlink:href="#DejaVuSans-30" x="127.246094"/>
      </g>
     </g>
    </g>
    <g id="text_16">
     <!-- Working set load (lb) -->
     <g style="fill: #8b949e" transform="translate(18.702813 205.412344) rotate(-90) scale(0.1 -0.1)">
      <defs>
       <path id="DejaVuSans-57" d="M 213 4666 
L 850 4666 
L 1831 722 
L 2809 4666 
L 3519 4666 
L 4500 722 
L 5478 4666 
L 6119 4666 
L 4947 0 
L 4153 0 
L 3169 4050 
L 2175 0 
L 1381 0 
L 213 4666 
z
" transform="scale(0.015625)"/>
       <path id="DejaVuSans-6f" d="M 1959 3097 
Q 1497 3097 1228 2736 
Q 959 2375 959 1747 
Q 959 1119 1226 758 
Q 1494 397 1959 397 
Q 2419 397 2687 759 
Q 2956 1122 2956 1747 
Q 2956 2369 2687 2733 
Q 2419 3097 1959 3097 
z
M 1959 3584 
Q 2709 3584 3137 3096 
Q 3566 2609 3566 1747 
Q 3566 888 3137 398 
Q 2709 -91 1959 -91 
Q 1206 -91 779 398 
Q 353 888 353 1747 
Q 353 2609 779 3096 
Q 1206 3584 1959 3584 
z
" transform="scale(0.015625)"/>
       <path id="DejaVuSans-6b" d="M 581 4863 
L 1159 4863 
L 1159 1991 
L 2875 3500 
L 3609 3500 
L 1753 1863 
L 3688 0 
L 2938 0 
L 1159 1709 
L 1159 0 
L 581 0 
L 581 4863 
z
" transform="scale(0.015625)"/>
       <path id="DejaVuSans-69" d="M 603 3500 
L 1178 3500 
L 1178 0 
L 603 0 
L 603 3500 
z
M 603 4863 
L 1178 4863 
L 1178 4134 
L 603 4134 
L 603 4863 
z
" transform="scale(0.015625)"/>
       <path id="DejaVuSans-6e" d="M 3513 2113 
L 3513 0 
L 2938 0 
L 2938 2094 
Q 2938 2591 2744 2837 
Q 2550 3084 2163 3084 
Q 1697 3084 1428 2787 
Q 1159 2491 1159 1978 
L 1159 0 
L 581 0 
L 581 3500 
L 1159 3500 
L 1159 2956 
Q 1366 3272 1645 3428 
Q 1925 3584 2291 3584 
Q 2894 3584 3203 3211 
Q 3513 2838 3513 2113 
z
" transform="scale(0.015625)"/>
       <path id="DejaVuSans-67" d="M 2906 1791 
Q 2906 2416 2648 2759 
Q 2391 3103 1925 3103 
Q 1463 3103 1205 2759 
Q 947 2416 947 1791 
Q 947 1169 1205 825 
Q 1463 481 1925 481 
Q 2391 481 2648 825 
Q 2906 1169 2906 1791 
z
M 3481 434 
Q 3481 -459 3084 -895 
Q 2688 -1331 1869 -1331 
Q 1566 -1331 1297 -1286 
Q 1028 -1241 775 -1147 
L 775 -588 
Q 1028 -725 1275 -790 
Q 1522 -856 1778 -856 
Q 2344 -856 2625 -561 
Q 2906 -266 2906 331 
L 2906 616 
Q 2728 306 2450 153 
Q 2172 0 1784 0 
Q 1141 0 747 490 
Q 353 981 353 1791 
Q 353 2603 747 3093 
Q 1141 3584 1784 3584 
Q 2172 3584 2450 3431 
Q 2728 3278 2906 2969 
L 2906 3500 
L 3481 3500 
L 3481 434 
z
" transform="scale(0.015625)"/>
       <path id="DejaVuSans-73" d="M 2834 3397 
L 2834 2853 
Q 2591 2978 2328 3040 
Q 2066 3103 1784 3103 
Q 1356 3103 1142 2972 
Q 928 2841 928 2578 
Q 928 2378 1081 2264 
Q 1234 2150 1697 2047 
L 1894 2003 
Q 2506 1872 2764 1633 
Q 3022 1394 3022 966 
Q 3022 478 2636 193 
Q 2250 -91 1575 -91 
Q 1294 -91 989 -36 
Q 684 19 347 128 
L 347 722 
Q 666 556 975 473 
Q 1284 391 1588 391 
Q 1994 391 2212 530 
Q 2431 669 2431 922 
Q 2431 1156 2273 1281 
Q 2116 1406 1581 1522 
L 1381 1569 
Q 847 1681 609 1914 
Q 372 2147 372 2553 
Q 372 3047 722 3315 
Q 1072 3584 1716 3584 
Q 2034 3584 2315 3537 
Q 2597 3491 2834 3397 
z
" transform="scale(0.015625)"/>
       <path id="DejaVuSans-65" d="M 3597 1894 
L 3597 1613 
L 953 1613 
Q 991 1019 1311 708 
Q 1631 397 2203 397 
Q 2534 397 2845 478 
Q 3156 559 3463 722 
L 3463 178 
Q 3153 47 2828 -22 
Q 2503 -91 2169 -91 
Q 1331 -91 842 396 
Q 353 884 353 1716 
Q 353 2575 817 3079 
Q 1281 3584 2069 3584 
Q 2775 3584 3186 3129 
Q 3597 2675 3597 1894 
z
M 3022 2063 
Q 3016 2534 2758 2815 
Q 2500 3097 2075 3097 
Q 1594 3097 1305 2825 
Q 1016 2553 972 2059 
L 3022 2063 
z
" transform="scale(0.015625)"/>
       <path id="DejaVuSans-74" d="M 1172 4494 
L 1172 3500 
L 2356 3500 
L 2356 3053 
L 1172 3053 
L 1172 1153 
Q 1172 725 1289 603 
Q 1406 481 1766 481 
L 2356 481 
L 2356 0 
L 1766 0 
Q 1100 0 847 248 
Q 594 497 594 1153 
L 594 3053 
L 172 3053 
L 172 3500 
L 594 3500 
L 594 4494 
L 1172 4494 
z
" transform="scale(0.015625)"/>
       <path id="DejaVuSans-6c" d="M 603 4863 
L 1178 4863 
L 1178 0 
L 603 0 
L 603 4863 
z
" transform="scale(0.015625)"/>
       <path id="DejaVuSans-61" d="M 2194 1759 
Q 1497 1759 1228 1600 
Q 959 1441 959 1056 
Q 959 750 1161 570 
Q 1363 391 1709 391 
Q 2188 391 2477 730 
Q 2766 1069 2766 1631 
L 2766 1759 
L 2194 1759 
z
M 3341 1997 
L 3341 0 
L 2766 0 
L 2766 531 
Q 2569 213 2275 61 
Q 1981 -91 1556 -91 
Q 1019 -91 701 211 
Q 384 513 384 1019 
Q 384 1609 779 1909 
Q 1175 2209 1959 2209 
L 2766 2209 
L 2766 2266 
Q 2766 2663 2505 2880 
Q 2244 3097 1772 3097 
Q 1472 3097 1187 3025 
Q 903 2953 641 2809 
L 641 3341 
Q 956 3463 1253 3523 
Q 1550 3584 1831 3584 
Q 2591 3584 2966 3190 
Q 3341 2797 3341 1997 
z
" transform="scale(0.015625)"/>
       <path id="DejaVuSans-64" d="M 2906 2969 
L 2906 4863 
L 3481 4863 
L 3481 0 
L 2906 0 
L 2906 525 
Q 2725 213 2448 61 
Q 2172 -91 1784 -91 
Q 1150 -91 751 415 
Q 353 922 353 1747 
Q 353 2572 751 3078 
Q 1150 3584 1784 3584 
Q 2172 3584 2448 3432 
Q 2725 3281 2906 2969 
z
M 947 1747 
Q 947 1113 1208 752 
Q 1469 391 1925 391 
Q 2381 391 2643 752 
Q 2906 1113 2906 1747 
Q 2906 2381 2643 2742 
Q 2381 3103 1925 3103 
Q 1469 3103 1208 2742 
Q 947 2381 947 1747 
z
" transform="scale(0.015625)"/>
       <path id="DejaVuSans-28" d="M 1984 4856 
Q 1566 4138 1362 3434 
Q 1159 2731 1159 2009 
Q 1159 1288 1364 580 
Q 1569 -128 1984 -844 
L 1484 -844 
Q 1016 -109 783 600 
Q 550 1309 550 2009 
Q 550 2706 781 3412 
Q 1013 4119 1484 4856 
L 1984 4856 
z
" transform="scale(0.015625)"/>
       <path id="DejaVuSans-62" d="M 3116 1747 
Q 3116 2381 2855 2742 
Q 2594 3103 2138 3103 
Q 1681 3103 1420 2742 
Q 1159 2381 1159 1747 
Q 1159 1113 1420 752 
Q 1681 391 2138 391 
Q 2594 391 2855 752 
Q 3116 1113 3116 1747 
z
M 1159 2969 
Q 1341 3281 1617 3432 
Q 1894 3584 2278 3584 
Q 2916 3584 3314 3078 
Q 3713 2572 3713 1747 
Q 3713 922 3314 415 
Q 2916 -91 2278 -91 
Q 1894 -91 1617 61 
Q 1341 213 1159 525 
L 1159 0 
L 581 0 
L 581 4863 
L 1159 4863 
L 1159 2969 
z
" transform="scale(0.015625)"/>
       <path id="DejaVuSans-29" d="M 513 4856 
L 1013 4856 
Q 1481 4119 1714 3412 
Q 1947 2706 1947 2009 
Q 1947 1309 1714 600 
Q 1481 -109 1013 -844 
L 513 -844 
Q 928 -128 1133 580 
Q 1338 1288 1338 2009 
Q 1338 2731 1133 3434 
Q 928 4138 513 4856 
z
" transform="scale(0.015625)"/>
      </defs>
      <use xlink:href="#DejaVuSans-57"/>
      <use xlink:href="#DejaVuSans-6f" x="93.001953"/>
      <use xlink:href="#DejaVuSans-72" x="154.183594"/>
      <use xlink:href="#DejaVuSans-6b" x="195.296875"/>
      <use xlink:href="#DejaVuSans-69" x="253.207031"/>
      <use xlink:href="#DejaVuSans-6e" x="280.990234"/>
      <use xlink:href="#DejaVuSans-67" x="344.369141"/>
      <use xlink:href="#DejaVuSans-20" x="407.845703"/>
      <use xlink:href="#DejaVuSans-73" x="439.632812"/>
      <use xlink:href="#DejaVuSans-65" x="491.732422"/>
      <use xlink:href="#DejaVuSans-74" x="553.255859"/>
      <use xlink:href="#DejaVuSans-20" x="592.464844"/>
      <use xlink:href="#DejaVuSans-6c" x="624.251953"/>
      <use xlink:href="#DejaVuSans-6f" x="652.035156"/>
      <use xlink:href="#DejaVuSans-61" x="713.216797"/>
      <use xlink:href="#DejaVuSans-64" x="774.496094"/>
      <use xlink:href="#DejaVuSans-20" x="837.972656"/>
      <use xlink:href="#DejaVuSans-28" x="869.759766"/>
      <use xlink:href="#DejaVuSans-6c" x="908.773438"/>
      <use xlink:href="#DejaVuSans-62" x="936.556641"/>
      <use xlink:href="#DejaVuSans-29" x="1000.033203"/>
     </g>
    </g>
   </g>
   <g id="patch_3">
    <path d="M 50.87 296.12 
L 50.87 10.8 
" style="fill: none; stroke: #23282f; stroke-width: 0.8; stroke-linejoin: miter; stroke-linecap: square"/>
   </g>
   <g id="patch_4">
    <path d="M 637.2 296.12 
L 637.2 10.8 
" style="fill: none; stroke: #23282f; stroke-width: 0.8; stroke-linejoin: miter; stroke-linecap: square"/>
   </g>
   <g id="patch_5">
    <path d="M 50.87 296.12 
L 637.2 296.12 
" style="fill: none; stroke: #23282f; stroke-width: 0.8; stroke-linejoin: miter; stroke-linecap: square"/>
   </g>
   <g id="patch_6">
    <path d="M 50.87 10.8 
L 637.2 10.8 
" style="fill: none; stroke: #23282f; stroke-width: 0.8; stroke-linejoin: miter; stroke-linecap: square"/>
   </g>
   <g id="legend_1">
    <g id="patch_7">
     <path d="M 567.0625 77.5125 
L 630.2 77.5125 
Q 632.2 77.5125 632.2 75.5125 
L 632.2 17.8 
Q 632.2 15.8 630.2 15.8 
L 567.0625 15.8 
Q 565.0625 15.8 565.0625 17.8 
L 565.0625 75.5125 
Q 565.0625 77.5125 567.0625 77.5125 
z
" style="fill: #0d1117; opacity: 0.8; stroke: #23282f; stroke-linejoin: miter"/>
    </g>
    <g id="PathCollection_5">
     <path d="M 579.0625 29.103565 
C 580.210863 29.103565 581.312347 28.647315 582.124362 27.8353 
C 582.936378 27.023284 583.392627 25.921801 583.392627 24.773438 
C 583.392627 23.625074 582.936378 22.523591 582.124362 21.711575 
C 581.312347 20.89956 580.210863 20.44331 579.0625 20.44331 
C 577.914137 20.44331 576.812653 20.89956 576.000638 21.711575 
C 575.188622 22.523591 574.732373 23.625074 574.732373 24.773438 
C 574.732373 25.921801 575.188622 27.023284 576.000638 27.8353 
C 576.812653 28.647315 577.914137 29.103565 579.0625 29.103565 
z
" style="fill: #f78166; fill-opacity: 0.85"/>
    </g>
    <g id="text_17">
     <!-- 2 reps -->
     <g style="fill: #e6edf3" transform="translate(597.0625 27.398438) scale(0.1 -0.1)">
      <use xlink:href="#DejaVuSans-32"/>
      <use xlink:href="#DejaVuSans-20" x="63.623047"/>
      <use xlink:href="#DejaVuSans-72" x="95.410156"/>
      <use xlink:href="#DejaVuSans-65" x="134.273438"/>
      <use xlink:href="#DejaVuSans-70" x="195.796875"/>
      <use xlink:href="#DejaVuSans-73" x="259.273438"/>
     </g>
    </g>
    <g id="PathCollection_6">
     <path d="M 579.0625 43.78169 
C 580.210863 43.78169 581.312347 43.32544 582.124362 42.513425 
C 582.936378 41.701409 583.392627 40.599926 583.392627 39.451563 
C 583.392627 38.303199 582.936378 37.201716 582.124362 36.3897 
C 581.312347 35.577685 580.210863 35.121435 579.0625 35.121435 
C 577.914137 35.121435 576.812653 35.577685 576.000638 36.3897 
C 575.188622 37.201716 574.732373 38.303199 574.732373 39.451563 
C 574.732373 40.599926 575.188622 41.701409 576.000638 42.513425 
C 576.812653 43.32544 577.914137 43.78169 579.0625 43.78169 
z
" style="fill: #d29922; fill-opacity: 0.85"/>
    </g>
    <g id="text_18">
     <!-- 3 reps -->
     <g style="fill: #e6edf3" transform="translate(597.0625 42.076563) scale(0.1 -0.1)">
      <use xlink:href="#DejaVuSans-33"/>
      <use xlink:href="#DejaVuSans-20" x="63.623047"/>
      <use xlink:href="#DejaVuSans-72" x="95.410156"/>
      <use xlink:href="#DejaVuSans-65" x="134.273438"/>
      <use xlink:href="#DejaVuSans-70" x="195.796875"/>
      <use xlink:href="#DejaVuSans-73" x="259.273438"/>
     </g>
    </g>
    <g id="PathCollection_7">
     <path d="M 579.0625 58.459815 
C 580.210863 58.459815 581.312347 58.003565 582.124362 57.19155 
C 582.936378 56.379534 583.392627 55.278051 583.392627 54.129688 
C 583.392627 52.981324 582.936378 51.879841 582.124362 51.067825 
C 581.312347 50.25581 580.210863 49.79956 579.0625 49.79956 
C 577.914137 49.79956 576.812653 50.25581 576.000638 51.067825 
C 575.188622 51.879841 574.732373 52.981324 574.732373 54.129688 
C 574.732373 55.278051 575.188622 56.379534 576.000638 57.19155 
C 576.812653 58.003565 577.914137 58.459815 579.0625 58.459815 
z
" style="fill: #3fb950; fill-opacity: 0.85"/>
    </g>
    <g id="text_19">
     <!-- 4 reps -->
     <g style="fill: #e6edf3" transform="translate(597.0625 56.754688) scale(0.1 -0.1)">
      <use xlink:href="#DejaVuSans-34"/>
      <use xlink:href="#DejaVuSans-20" x="63.623047"/>
      <use xlink:href="#DejaVuSans-72" x="95.410156"/>
      <use xlink:href="#DejaVuSans-65" x="134.273438"/>
      <use xlink:href="#DejaVuSans-70" x="195.796875"/>
      <use xlink:href="#DejaVuSans-73" x="259.273438"/>
     </g>
    </g>
    <g id="PathCollection_8">
     <path d="M 579.0625 75.516016 
C 580.841536 75.516016 582.547948 74.809198 583.805916 73.551229 
C 585.063885 72.29326 585.770704 70.586849 585.770704 68.807813 
C 585.770704 67.028776 585.063885 65.322365 583.805916 64.064396 
C 582.547948 62.806427 580.841536 62.099609 579.0625 62.099609 
C 577.283464 62.099609 575.577052 62.806427 574.319084 64.064396 
C 573.061115 65.322365 572.354296 67.028776 572.354296 68.807813 
C 572.354296 70.586849 573.061115 72.29326 574.319084 73.551229 
C 575.577052 74.809198 577.283464 75.516016 579.0625 75.516016 
z
" style="fill: #58a6ff; fill-opacity: 0.85"/>
    </g>
    <g id="text_20">
     <!-- 5 reps -->
     <g style="fill: #e6edf3" transform="translate(597.0625 71.432813) scale(0.1 -0.1)">
      <use xlink:href="#DejaVuSans-35"/>
      <use xlink:href="#DejaVuSans-20" x="63.623047"/>
      <use xlink:href="#DejaVuSans-72" x="95.410156"/>
      <use xlink:href="#DejaVuSans-65" x="134.273438"/>
      <use xlink:href="#DejaVuSans-70" x="195.796875"/>
      <use xlink:href="#DejaVuSans-73" x="259.273438"/>
     </g>
    </g>
   </g>
  </g>
 </g>
 <defs>
  <clipPath id="p6fd872d9b6">
   <rect x="50.87" y="10.8" width="586.33" height="285.32"/>
  </clipPath>
 </defs>
</svg>
